<svg width="427" height="858" viewBox="0 0 427 858" fill="none" xmlns="http://www.w3.org/2000/svg">
<g clip-path="url(#clip0_1825_6420)">
<path fill-rule="evenodd" clip-rule="evenodd" d="M424 197H425C426.105 197 427 197.895 427 199V295C427 296.105 426.105 297 425 297H424V197Z" fill="#121515"/>
<path fill-rule="evenodd" clip-rule="evenodd" d="M0 257C0 255.895 0.895431 255 2 255H3V318H2C0.895431 318 0 317.105 0 316V257Z" fill="#121515"/>
<path fill-rule="evenodd" clip-rule="evenodd" d="M0 178C0 176.895 0.895431 176 2 176H3V239H2C0.895431 239 0 238.105 0 237V178Z" fill="#121515"/>
<path fill-rule="evenodd" clip-rule="evenodd" d="M0 117C0 115.895 0.895431 115 2 115H3V148H2C0.895431 148 0 147.105 0 146V117Z" fill="#121515"/>
<g filter="url(#filter0_dd_1825_6420)">
<path fill-rule="evenodd" clip-rule="evenodd" d="M3 63C3 28.2061 31.2061 0 66 0H361C395.794 0 424 28.2061 424 63V795C424 829.794 395.794 858 361 858H66C31.2061 858 3 829.794 3 795V63Z" fill="#3A4245"/>
</g>
<path fill-rule="evenodd" clip-rule="evenodd" d="M8 63C8 30.9675 33.9675 5 66 5H361C393.033 5 419 30.9675 419 63V795C419 827.033 393.033 853 361 853H66C33.9675 853 8 827.033 8 795V63Z" fill="#121515"/>
<path fill-rule="evenodd" clip-rule="evenodd" d="M259 40C263.418 40 267 36.4183 267 32C267 27.5817 263.418 24 259 24C254.582 24 251 27.5817 251 32C251 36.4183 254.582 40 259 40Z" fill="#262C2D"/>
<path fill-rule="evenodd" clip-rule="evenodd" d="M259 37C261.761 37 264 34.7614 264 32C264 29.2386 261.761 27 259 27C256.239 27 254 29.2386 254 32C254 34.7614 256.239 37 259 37Z" fill="#121515"/>
<path opacity="0.4" fill-rule="evenodd" clip-rule="evenodd" d="M259 31C259.552 31 260 30.5523 260 30C260 29.4477 259.552 29 259 29C258.448 29 258 29.4477 258 30C258 30.5523 258.448 31 259 31Z" fill="#636F73"/>
<path fill-rule="evenodd" clip-rule="evenodd" d="M188 32C188 30.3431 189.343 29 191 29H236C237.657 29 239 30.3431 239 32C239 33.6569 237.657 35 236 35H191C189.343 35 188 33.6569 188 32Z" fill="#262C2D"/>
<mask id="mask0_1825_6420" style="mask-type:alpha" maskUnits="userSpaceOnUse" x="26" y="24" width="375" height="812">
<path fill-rule="evenodd" clip-rule="evenodd" d="M132 54H295C308.255 54 319 43.2548 319 28.75C319.136 26.1862 321.186 24.1357 323.744 24.0065L363 24C383.987 24 401 41.0132 401 62V798C401 818.987 383.987 836 363 836H64C43.0132 836 26 818.987 26 798V62C26 41.0132 43.0132 24 64 24H103.25C105.814 24.1357 107.864 26.1862 107.994 28.7435C108 43.2548 118.745 54 132 54Z" fill="white"/>
</mask>
<g mask="url(#mask0_1825_6420)">
<rect width="390" height="844" transform="translate(19 7)" fill="#F1F2F4"/>
<path d="M66.744 148H68.088V138.88H71.8V137.6H63.032V138.88H66.744V148ZM75.0589 148.192C77.3789 148.192 79.0589 146.432 79.0589 144C79.0589 141.568 77.3789 139.808 75.0589 139.808C72.7389 139.808 71.0589 141.568 71.0589 144C71.0589 146.432 72.7389 148.192 75.0589 148.192ZM72.4029 144C72.4029 142.288 73.5229 141.056 75.0589 141.056C76.5949 141.056 77.7149 142.288 77.7149 144C77.7149 145.696 76.5949 146.912 75.0589 146.912C73.5229 146.912 72.4029 145.696 72.4029 144ZM84.0101 148.192C85.2101 148.192 86.2021 147.648 86.8101 146.704L86.9701 148H88.0581L88.0261 146.4V137.12H86.7461V141.232C86.1061 140.336 85.1301 139.808 83.9461 139.808C81.7541 139.808 80.0901 141.616 80.0901 143.968C80.0901 146.336 81.8021 148.192 84.0101 148.192ZM81.4341 144C81.4341 142.288 82.5381 141.056 84.0741 141.056C85.6421 141.056 86.7781 142.288 86.7781 144C86.7781 145.712 85.6901 146.912 84.1381 146.912C82.5701 146.912 81.4341 145.68 81.4341 144ZM94.7734 144.16V144.672C94.7734 145.952 93.7014 146.944 92.3734 146.944C91.4774 146.944 90.9654 146.512 90.9654 145.888C90.9654 145.296 91.3494 144.816 92.1174 144.672L94.2294 144.288C94.4534 144.24 94.6614 144.208 94.7734 144.16ZM89.5574 145.888C89.5574 147.232 90.5814 148.192 92.1174 148.192C93.3974 148.192 94.3574 147.616 94.8214 146.688L95.0294 148H96.0854L96.0534 146.4V142.688C96.0534 140.944 94.7094 139.808 92.9814 139.808C91.2694 139.808 89.9734 141.008 89.8134 142.656L91.2214 142.88C91.2534 141.76 91.9574 140.96 93.0134 140.96C94.0374 140.96 94.7734 141.68 94.7734 142.688V142.752C94.7734 142.976 94.5654 143.152 94.2614 143.2L91.7974 143.648C90.3254 143.92 89.5574 144.736 89.5574 145.888ZM96.7351 140L99.8711 147.744L99.4231 148.896C99.1351 149.632 98.5911 149.984 97.8871 150.048L98.2391 151.392C99.3271 151.264 100.207 150.432 100.703 149.152L104.223 140H102.751L100.575 146.144L98.2391 140H96.7351ZM104.986 140.96C106.01 140.96 106.746 140.048 106.746 138.944C106.746 138.048 106.234 137.472 105.594 137.472C105.034 137.472 104.634 137.904 104.634 138.528C104.634 139.168 105.13 139.584 105.85 139.52C105.85 139.968 105.466 140.256 104.954 140.256C104.858 140.256 104.762 140.24 104.698 140.224L104.666 140.928C104.746 140.944 104.874 140.96 104.986 140.96ZM109.12 145.248L107.712 145.632C107.824 147.12 109.264 148.192 111.168 148.192C112.992 148.192 114.24 147.232 114.24 145.824C114.24 143.024 109.472 143.776 109.472 142.048C109.472 141.408 110.144 140.992 110.944 140.992C111.872 140.992 112.608 141.552 112.64 142.336L113.984 141.984C113.808 140.72 112.592 139.808 110.944 139.808C109.36 139.808 108.096 140.576 108.096 141.984C108.096 144.784 112.832 144 112.832 145.824C112.832 146.496 112.16 146.976 111.264 146.976C110.16 146.976 109.184 146.256 109.12 145.248ZM118.781 137.6L120.029 148H121.885L123.997 139.68L126.077 148H127.933L129.277 137.6H127.901L126.909 146.24L124.765 137.632H123.293L121.117 146.208L120.189 137.6H118.781ZM134.121 148.192C136.441 148.192 138.121 146.432 138.121 144C138.121 141.568 136.441 139.808 134.121 139.808C131.801 139.808 130.121 141.568 130.121 144C130.121 146.432 131.801 148.192 134.121 148.192ZM131.465 144C131.465 142.288 132.585 141.056 134.121 141.056C135.657 141.056 136.777 142.288 136.777 144C136.777 145.696 135.657 146.912 134.121 146.912C132.585 146.912 131.465 145.696 131.465 144ZM139.601 148H140.881V143.392C140.881 142.144 141.681 141.248 142.801 141.248C143.057 141.248 143.441 141.312 143.761 141.504L143.825 140C143.553 139.888 143.249 139.808 142.929 139.808C142.001 139.808 141.233 140.4 140.849 141.328L140.689 140H139.601V148ZM145.104 137.12V148H146.384V145.856L147.792 144.336L150.48 148H152.08L148.656 143.392L151.76 140H150.032L146.384 144.112V137.12H145.104ZM156.309 148.192C158.629 148.192 160.309 146.432 160.309 144C160.309 141.568 158.629 139.808 156.309 139.808C153.989 139.808 152.309 141.568 152.309 144C152.309 146.432 153.989 148.192 156.309 148.192ZM153.653 144C153.653 142.288 154.773 141.056 156.309 141.056C157.845 141.056 158.965 142.288 158.965 144C158.965 145.696 157.845 146.912 156.309 146.912C154.773 146.912 153.653 145.696 153.653 144ZM168.604 148L168.572 146.4V140H167.292V144.384C167.292 145.904 166.188 146.88 164.924 146.88C163.724 146.88 162.94 145.984 162.94 144.768V140H161.66V144.896C161.66 146.8 162.956 148.192 164.732 148.192C165.948 148.192 166.972 147.568 167.324 146.64L167.484 148H168.604ZM169.659 141.248H170.971V146.144C170.971 147.376 171.851 148.192 173.147 148.192C173.451 148.192 173.787 148.144 174.043 148.064L174.011 146.784C173.819 146.848 173.563 146.88 173.339 146.88C172.683 146.88 172.251 146.48 172.251 145.888V141.248H174.011V140H172.251V137.952H171.035V139.008C171.035 139.584 170.667 140 170.171 140H169.659V141.248Z" fill="black"/>
<path d="M351 155C357.627 155 363 149.627 363 143C363 136.373 357.627 131 351 131C344.373 131 339 136.373 339 143C339 149.627 344.373 155 351 155Z" stroke="#5D47BF" stroke-width="2" stroke-miterlimit="10"/>
<path d="M346 143H356" stroke="#5D47BF" stroke-width="2" stroke-linecap="round" stroke-linejoin="round"/>
<path d="M351 138V148" stroke="#5D47BF" stroke-width="2" stroke-linecap="round" stroke-linejoin="round"/>
<path d="M292.416 148.192C294.208 148.192 295.712 147.168 296.064 145.76L294.624 145.312C294.432 146.24 293.472 146.912 292.416 146.912C291.104 146.912 290.112 145.92 289.92 144.496H296.112C296.128 144.368 296.128 144.288 296.128 144.224C296.128 141.664 294.656 139.808 292.352 139.808C290.112 139.808 288.512 141.584 288.512 144.032C288.512 146.448 290.112 148.192 292.416 148.192ZM289.952 143.248C290.192 141.936 291.104 141.056 292.288 141.056C293.44 141.056 294.496 141.84 294.752 143.248H289.952ZM301.073 148.192C302.273 148.192 303.265 147.648 303.873 146.704L304.033 148H305.121L305.089 146.4V137.12H303.809V141.232C303.169 140.336 302.193 139.808 301.009 139.808C298.817 139.808 297.153 141.616 297.153 143.968C297.153 146.336 298.865 148.192 301.073 148.192ZM298.497 144C298.497 142.288 299.601 141.056 301.137 141.056C302.705 141.056 303.841 142.288 303.841 144C303.841 145.712 302.753 146.912 301.201 146.912C299.633 146.912 298.497 145.68 298.497 144ZM307.292 140V148H308.572V140H307.292ZM306.94 137.952C306.94 138.544 307.356 138.976 307.932 138.976C308.508 138.976 308.924 138.544 308.924 137.952C308.924 137.36 308.508 136.928 307.932 136.928C307.356 136.928 306.94 137.36 306.94 137.952ZM309.816 141.248H311.128V146.144C311.128 147.376 312.008 148.192 313.304 148.192C313.608 148.192 313.944 148.144 314.2 148.064L314.168 146.784C313.976 146.848 313.72 146.88 313.496 146.88C312.84 146.88 312.408 146.48 312.408 145.888V141.248H314.168V140H312.408V137.952H311.192V139.008C311.192 139.584 310.824 140 310.328 140H309.816V141.248Z" fill="#5D47BF"/>
<path d="M288 150H314.647V150.8H288V150Z" fill="#5D47BF"/>
<g clip-path="url(#clip1_1825_6420)">
<g filter="url(#filter1_d_1825_6420)">
<rect x="62" y="171" width="304" height="88" rx="16" fill="white"/>
<rect x="78" y="187" width="40" height="56" rx="8" fill="#5D47BF"/>
<path d="M106.25 209.75L95.75 220.25L90.5 215" stroke="white" stroke-width="2" stroke-linecap="round" stroke-linejoin="round"/>
<path d="M131.088 209H135.952C137.68 209 139.024 207.768 139.024 206.184C139.024 205 138.256 203.992 137.04 203.592C138.032 203.16 138.64 202.28 138.64 201.256C138.64 199.736 137.312 198.6 135.536 198.6H131.088V209ZM132.432 207.688V204.328H135.76C136.848 204.328 137.648 205.032 137.648 206.008C137.648 206.984 136.848 207.688 135.76 207.688H132.432ZM132.432 203.048V199.88H135.504C136.544 199.88 137.296 200.552 137.296 201.464C137.296 202.376 136.544 203.048 135.504 203.048H132.432ZM140.682 209H145.546C147.274 209 148.618 207.768 148.618 206.184C148.618 205 147.85 203.992 146.634 203.592C147.626 203.16 148.234 202.28 148.234 201.256C148.234 199.736 146.906 198.6 145.13 198.6H140.682V209ZM142.026 207.688V204.328H145.354C146.442 204.328 147.242 205.032 147.242 206.008C147.242 206.984 146.442 207.688 145.354 207.688H142.026ZM142.026 203.048V199.88H145.098C146.138 199.88 146.89 200.552 146.89 201.464C146.89 202.376 146.138 203.048 145.098 203.048H142.026ZM162.879 205.416L161.375 204.968C161.183 206.696 159.951 207.848 158.303 207.848C156.223 207.848 154.719 206.152 154.719 203.8C154.719 201.432 156.191 199.72 158.207 199.72C159.727 199.72 161.023 200.872 161.279 202.472L162.751 201.96C162.367 199.896 160.463 198.408 158.207 198.408C155.343 198.408 153.279 200.68 153.279 203.8C153.279 206.92 155.391 209.192 158.303 209.192C160.671 209.192 162.495 207.688 162.879 205.416ZM164.541 198.12V209H165.821V198.12H164.541ZM171.322 209.192C173.114 209.192 174.618 208.168 174.97 206.76L173.53 206.312C173.338 207.24 172.378 207.912 171.322 207.912C170.01 207.912 169.018 206.92 168.826 205.496H175.018C175.034 205.368 175.034 205.288 175.034 205.224C175.034 202.664 173.562 200.808 171.258 200.808C169.018 200.808 167.418 202.584 167.418 205.032C167.418 207.448 169.018 209.192 171.322 209.192ZM168.858 204.248C169.098 202.936 170.01 202.056 171.194 202.056C172.346 202.056 173.402 202.84 173.658 204.248H168.858ZM181.211 205.16V205.672C181.211 206.952 180.139 207.944 178.811 207.944C177.915 207.944 177.403 207.512 177.403 206.888C177.403 206.296 177.787 205.816 178.555 205.672L180.667 205.288C180.891 205.24 181.099 205.208 181.211 205.16ZM175.995 206.888C175.995 208.232 177.019 209.192 178.555 209.192C179.835 209.192 180.795 208.616 181.259 207.688L181.467 209H182.523L182.491 207.4V203.688C182.491 201.944 181.147 200.808 179.419 200.808C177.707 200.808 176.411 202.008 176.251 203.656L177.659 203.88C177.691 202.76 178.395 201.96 179.451 201.96C180.475 201.96 181.211 202.68 181.211 203.688V203.752C181.211 203.976 181.003 204.152 180.699 204.2L178.235 204.648C176.763 204.92 175.995 205.736 175.995 206.888ZM190.016 204.232V209H191.296V204.136C191.296 202.2 190 200.808 188.192 200.808C186.912 200.808 185.968 201.48 185.552 202.472L185.376 201H184.288V209H185.568V204.712C185.568 203.192 186.672 202.088 188 202.088C189.2 202.088 190.016 202.984 190.016 204.232ZM196.537 204.808C196.537 207.352 198.297 209.192 200.729 209.192C203.161 209.192 204.921 207.352 204.921 204.808V198.6H203.577V204.776C203.577 206.552 202.377 207.848 200.729 207.848C199.081 207.848 197.881 206.552 197.881 204.776V198.6H196.537V204.808ZM210.869 209.192C212.933 209.192 214.677 207.48 214.677 204.968C214.677 202.536 213.013 200.808 210.869 200.808C209.621 200.808 208.629 201.384 208.021 202.344L207.861 201H206.773V212.2H208.053V207.656C208.677 208.616 209.669 209.192 210.869 209.192ZM208.021 205C208.021 203.288 209.141 202.056 210.677 202.056C212.213 202.056 213.333 203.288 213.333 205C213.333 206.696 212.213 207.912 210.677 207.912C209.141 207.912 208.021 206.696 208.021 205ZM224.367 205.16V205.672C224.367 206.952 223.295 207.944 221.967 207.944C221.071 207.944 220.559 207.512 220.559 206.888C220.559 206.296 220.943 205.816 221.711 205.672L223.823 205.288C224.047 205.24 224.255 205.208 224.367 205.16ZM219.151 206.888C219.151 208.232 220.175 209.192 221.711 209.192C222.991 209.192 223.951 208.616 224.415 207.688L224.623 209H225.679L225.647 207.4V203.688C225.647 201.944 224.303 200.808 222.575 200.808C220.863 200.808 219.567 202.008 219.407 203.656L220.815 203.88C220.847 202.76 221.551 201.96 222.607 201.96C223.631 201.96 224.367 202.68 224.367 203.688V203.752C224.367 203.976 224.159 204.152 223.855 204.2L221.391 204.648C219.919 204.92 219.151 205.736 219.151 206.888ZM233.172 204.232V209H234.452V204.136C234.452 202.2 233.156 200.808 231.348 200.808C230.068 200.808 229.124 201.48 228.708 202.472L228.532 201H227.444V209H228.724V204.712C228.724 203.192 229.828 202.088 231.156 202.088C232.356 202.088 233.172 202.984 233.172 204.232ZM239.713 209.192C240.913 209.192 241.905 208.648 242.513 207.704L242.673 209H243.761L243.729 207.4V198.12H242.449V202.232C241.809 201.336 240.833 200.808 239.649 200.808C237.457 200.808 235.793 202.616 235.793 204.968C235.793 207.336 237.505 209.192 239.713 209.192ZM237.137 205C237.137 203.288 238.241 202.056 239.777 202.056C241.345 202.056 242.481 203.288 242.481 205C242.481 206.712 241.393 207.912 239.841 207.912C238.273 207.912 237.137 206.68 237.137 205ZM253.96 209.192C256.888 209.192 259.016 206.92 259.016 203.8C259.016 200.68 256.888 198.408 253.96 198.408C251.032 198.408 248.904 200.68 248.904 203.8C248.904 206.92 251.032 209.192 253.96 209.192ZM250.312 203.8C250.312 201.432 251.848 199.72 253.96 199.72C256.072 199.72 257.608 201.432 257.608 203.8C257.608 206.152 256.072 207.848 253.96 207.848C251.848 207.848 250.312 206.152 250.312 203.8ZM259.626 201L262.698 209H264.202L267.21 201H265.77L263.45 207.528L261.13 201H259.626ZM271.525 209.192C273.317 209.192 274.821 208.168 275.173 206.76L273.733 206.312C273.541 207.24 272.581 207.912 271.525 207.912C270.213 207.912 269.221 206.92 269.029 205.496H275.221C275.237 205.368 275.237 205.288 275.237 205.224C275.237 202.664 273.765 200.808 271.461 200.808C269.221 200.808 267.621 202.584 267.621 205.032C267.621 207.448 269.221 209.192 271.525 209.192ZM269.061 204.248C269.301 202.936 270.213 202.056 271.397 202.056C272.549 202.056 273.605 202.84 273.861 204.248H269.061ZM276.71 209H277.99V204.392C277.99 203.144 278.79 202.248 279.91 202.248C280.166 202.248 280.55 202.312 280.87 202.504L280.934 201C280.662 200.888 280.358 200.808 280.038 200.808C279.11 200.808 278.342 201.4 277.958 202.328L277.798 201H276.71V209Z" fill="black"/>
<path d="M130.576 230.864C130.576 232.208 131.716 233.144 133.288 233.144C134.86 233.144 136 232.208 136 230.864C136 229.916 135.424 229.136 134.536 228.824C135.28 228.536 135.712 227.924 135.712 227.144C135.712 225.932 134.68 225.056 133.288 225.056C131.908 225.056 130.864 225.932 130.864 227.144C130.864 227.924 131.296 228.536 132.04 228.824C131.152 229.136 130.576 229.916 130.576 230.864ZM131.608 230.744C131.608 229.904 132.316 229.304 133.288 229.304C134.26 229.304 134.968 229.904 134.968 230.744C134.968 231.584 134.26 232.16 133.288 232.16C132.316 232.16 131.608 231.584 131.608 230.744ZM131.848 227.192C131.848 226.484 132.46 225.992 133.288 225.992C134.116 225.992 134.728 226.484 134.728 227.192C134.728 227.888 134.116 228.392 133.288 228.392C132.46 228.392 131.848 227.888 131.848 227.192ZM140.027 233H141.035V229.868H143.339L144.899 233H146.075L144.395 229.748C145.319 229.448 145.931 228.608 145.931 227.54C145.931 226.184 144.959 225.2 143.603 225.2H140.027V233ZM141.035 228.932V226.16H143.555C144.323 226.16 144.875 226.748 144.875 227.552C144.875 228.356 144.299 228.932 143.507 228.932H141.035ZM149.636 233.144C150.98 233.144 152.108 232.376 152.372 231.32L151.292 230.984C151.148 231.68 150.428 232.184 149.636 232.184C148.652 232.184 147.908 231.44 147.764 230.372H152.408C152.42 230.276 152.42 230.216 152.42 230.168C152.42 228.248 151.316 226.856 149.588 226.856C147.908 226.856 146.708 228.188 146.708 230.024C146.708 231.836 147.908 233.144 149.636 233.144ZM147.788 229.436C147.968 228.452 148.652 227.792 149.54 227.792C150.404 227.792 151.196 228.38 151.388 229.436H147.788ZM156.597 233.144C158.145 233.144 159.453 231.86 159.453 229.976C159.453 228.152 158.205 226.856 156.597 226.856C155.661 226.856 154.917 227.288 154.461 228.008L154.341 227H153.525V235.4H154.485V231.992C154.953 232.712 155.697 233.144 156.597 233.144ZM154.461 230C154.461 228.716 155.301 227.792 156.453 227.792C157.605 227.792 158.445 228.716 158.445 230C158.445 231.272 157.605 232.184 156.453 232.184C155.301 232.184 154.461 231.272 154.461 230ZM161.18 230.936L160.124 231.224C160.208 232.34 161.288 233.144 162.716 233.144C164.084 233.144 165.02 232.424 165.02 231.368C165.02 229.268 161.444 229.832 161.444 228.536C161.444 228.056 161.948 227.744 162.548 227.744C163.244 227.744 163.796 228.164 163.82 228.752L164.828 228.488C164.696 227.54 163.784 226.856 162.548 226.856C161.36 226.856 160.412 227.432 160.412 228.488C160.412 230.588 163.964 230 163.964 231.368C163.964 231.872 163.46 232.232 162.788 232.232C161.96 232.232 161.228 231.692 161.18 230.936Z" fill="black"/>
<path d="M193.168 233.144C194.74 233.144 195.904 232.04 195.904 230.504C195.904 229.112 194.992 228.104 193.648 228.008L195.664 226.184V225.2H190.816V226.16H194.416L192.112 228.248L192.736 228.968C192.88 228.896 193.072 228.872 193.216 228.872C194.08 228.872 194.848 229.496 194.848 230.504C194.848 231.428 194.152 232.136 193.192 232.136C192.208 232.136 191.512 231.44 191.512 230.456V229.856H190.48V230.528C190.48 232.052 191.608 233.144 193.168 233.144ZM200.561 230.264L199.457 230.552C199.553 232.088 200.861 233.144 202.625 233.144C204.317 233.144 205.457 232.22 205.457 230.888C205.457 228.236 200.873 228.764 200.873 227.096C200.873 226.448 201.593 226.016 202.409 226.016C203.369 226.016 203.969 226.64 204.065 227.456L205.169 227.144C205.025 225.896 203.897 225.056 202.409 225.056C200.945 225.056 199.793 225.872 199.793 227.144C199.793 229.676 204.353 229.028 204.353 230.888C204.353 231.632 203.609 232.16 202.649 232.16C201.461 232.16 200.609 231.368 200.561 230.264ZM209.203 233.144C210.547 233.144 211.675 232.376 211.939 231.32L210.859 230.984C210.715 231.68 209.995 232.184 209.203 232.184C208.219 232.184 207.475 231.44 207.331 230.372H211.975C211.987 230.276 211.987 230.216 211.987 230.168C211.987 228.248 210.883 226.856 209.155 226.856C207.475 226.856 206.275 228.188 206.275 230.024C206.275 231.836 207.475 233.144 209.203 233.144ZM207.355 229.436C207.535 228.452 208.219 227.792 209.107 227.792C209.971 227.792 210.763 228.38 210.955 229.436H207.355ZM212.326 227.936H213.31V231.608C213.31 232.532 213.97 233.144 214.942 233.144C215.17 233.144 215.422 233.108 215.614 233.048L215.59 232.088C215.446 232.136 215.254 232.16 215.086 232.16C214.594 232.16 214.27 231.86 214.27 231.416V227.936H215.59V227H214.27V225.464H213.358V226.256C213.358 226.688 213.082 227 212.71 227H212.326V227.936ZM217.289 230.936L216.233 231.224C216.317 232.34 217.397 233.144 218.825 233.144C220.193 233.144 221.129 232.424 221.129 231.368C221.129 229.268 217.553 229.832 217.553 228.536C217.553 228.056 218.057 227.744 218.657 227.744C219.353 227.744 219.905 228.164 219.929 228.752L220.937 228.488C220.805 227.54 219.893 226.856 218.657 226.856C217.469 226.856 216.521 227.432 216.521 228.488C216.521 230.588 220.073 230 220.073 231.368C220.073 231.872 219.569 232.232 218.897 232.232C218.069 232.232 217.337 231.692 217.289 230.936Z" fill="black"/>
<line x1="174" y1="228.5" x2="182" y2="228.5" stroke="black"/>
<path d="M331.794 220.5H329C328.867 220.5 328.74 220.447 328.646 220.353C328.553 220.26 328.5 220.133 328.5 220V217.206C328.5 217.141 328.512 217.077 328.537 217.017C328.562 216.957 328.598 216.902 328.644 216.856L336.144 209.356C336.19 209.309 336.246 209.271 336.307 209.246C336.368 209.22 336.434 209.207 336.5 209.207C336.566 209.207 336.632 209.22 336.693 209.246C336.754 209.271 336.81 209.309 336.856 209.356L339.644 212.144C339.691 212.19 339.729 212.246 339.754 212.307C339.78 212.368 339.793 212.434 339.793 212.5C339.793 212.566 339.78 212.632 339.754 212.693C339.729 212.754 339.691 212.81 339.644 212.856L332.144 220.356C332.098 220.402 332.043 220.438 331.983 220.463C331.923 220.488 331.859 220.5 331.794 220.5V220.5Z" stroke="black" stroke-linecap="round" stroke-linejoin="round"/>
<path d="M334.5 211L338 214.5" stroke="black" stroke-linecap="round" stroke-linejoin="round"/>
<circle cx="334" cy="215" r="15.5" stroke="black"/>
</g>
<g filter="url(#filter2_d_1825_6420)">
<rect x="63" y="275" width="304" height="88" rx="16" fill="white"/>
<path d="M136.44 313.192C138.392 313.192 139.88 312.056 140.248 310.392L140.536 313H141.432L141.112 307.32H135.256V308.568H139.928V308.712C139.864 310.52 138.44 311.848 136.568 311.848C134.472 311.848 132.984 310.136 132.984 307.768C132.984 305.432 134.472 303.72 136.504 303.72C138.12 303.72 139.4 304.808 139.576 306.344L141.112 305.832C140.744 303.848 138.824 302.408 136.536 302.408C133.656 302.408 131.576 304.696 131.576 307.8C131.576 310.92 133.624 313.192 136.44 313.192ZM146.59 313.192C148.91 313.192 150.59 311.432 150.59 309C150.59 306.568 148.91 304.808 146.59 304.808C144.27 304.808 142.59 306.568 142.59 309C142.59 311.432 144.27 313.192 146.59 313.192ZM143.934 309C143.934 307.288 145.054 306.056 146.59 306.056C148.126 306.056 149.246 307.288 149.246 309C149.246 310.696 148.126 311.912 146.59 311.912C145.054 311.912 143.934 310.696 143.934 309ZM156.293 313.192C158.453 313.192 160.101 311.352 160.101 308.968C160.101 306.584 158.469 304.808 156.293 304.808C155.093 304.808 154.101 305.368 153.477 306.296V302.12H152.197V313H153.285L153.445 311.64C154.069 312.616 155.077 313.192 156.293 313.192ZM153.445 309C153.445 307.288 154.565 306.056 156.101 306.056C157.637 306.056 158.757 307.288 158.757 309C158.757 310.696 157.637 311.912 156.101 311.912C154.565 311.912 153.445 310.696 153.445 309ZM161.697 302.12V313H162.977V302.12H161.697ZM168.479 313.192C170.271 313.192 171.775 312.168 172.127 310.76L170.687 310.312C170.495 311.24 169.535 311.912 168.479 311.912C167.167 311.912 166.174 310.92 165.983 309.496H172.175C172.191 309.368 172.191 309.288 172.191 309.224C172.191 306.664 170.719 304.808 168.415 304.808C166.174 304.808 164.575 306.584 164.575 309.032C164.575 311.448 166.174 313.192 168.479 313.192ZM166.015 308.248C166.255 306.936 167.167 306.056 168.351 306.056C169.503 306.056 170.559 306.84 170.815 308.248H166.015ZM172.644 306.248H173.956V311.144C173.956 312.376 174.836 313.192 176.132 313.192C176.436 313.192 176.772 313.144 177.028 313.064L176.996 311.784C176.804 311.848 176.548 311.88 176.324 311.88C175.668 311.88 175.236 311.48 175.236 310.888V306.248H176.996V305H175.236V302.952H174.02V304.008C174.02 304.584 173.652 305 173.156 305H172.644V306.248ZM182.072 302.6V313H188.856V311.688H183.416V302.6H182.072ZM193.213 313.192C195.005 313.192 196.509 312.168 196.861 310.76L195.421 310.312C195.229 311.24 194.269 311.912 193.213 311.912C191.901 311.912 190.909 310.92 190.717 309.496H196.909C196.925 309.368 196.925 309.288 196.925 309.224C196.925 306.664 195.453 304.808 193.149 304.808C190.909 304.808 189.309 306.584 189.309 309.032C189.309 311.448 190.909 313.192 193.213 313.192ZM190.749 308.248C190.989 306.936 191.901 306.056 193.085 306.056C194.237 306.056 195.293 306.84 195.549 308.248H190.749ZM202.046 316.392C204.286 316.392 205.885 314.792 205.885 312.552V305H204.766L204.654 306.312C204.046 305.384 203.054 304.808 201.822 304.808C199.662 304.808 197.95 306.536 197.95 308.92C197.95 311.352 199.678 313 201.758 313C202.974 313 203.966 312.44 204.606 311.528V312.68C204.606 314.072 203.566 315.08 202.11 315.08C200.83 315.08 199.838 314.312 199.678 313.192L198.27 313.576C198.51 315.208 200.11 316.392 202.046 316.392ZM199.294 308.92C199.294 307.256 200.414 306.056 201.95 306.056C203.486 306.056 204.606 307.256 204.606 308.92C204.606 310.584 203.486 311.784 201.95 311.784C200.414 311.784 199.294 310.584 199.294 308.92ZM212.471 309.352L210.999 309.736C211.127 311.784 212.871 313.192 215.223 313.192C217.479 313.192 218.999 311.96 218.999 310.184C218.999 306.648 212.887 307.352 212.887 305.128C212.887 304.264 213.847 303.688 214.935 303.688C216.215 303.688 217.015 304.52 217.143 305.608L218.615 305.192C218.423 303.528 216.919 302.408 214.935 302.408C212.983 302.408 211.447 303.496 211.447 305.192C211.447 308.568 217.527 307.704 217.527 310.184C217.527 311.176 216.535 311.88 215.255 311.88C213.671 311.88 212.535 310.824 212.471 309.352ZM223.994 313.192C225.786 313.192 227.29 312.168 227.642 310.76L226.202 310.312C226.01 311.24 225.05 311.912 223.994 311.912C222.682 311.912 221.69 310.92 221.498 309.496H227.69C227.706 309.368 227.706 309.288 227.706 309.224C227.706 306.664 226.234 304.808 223.93 304.808C221.69 304.808 220.09 306.584 220.09 309.032C220.09 311.448 221.69 313.192 223.994 313.192ZM221.53 308.248C221.77 306.936 222.682 306.056 223.866 306.056C225.018 306.056 226.074 306.84 226.33 308.248H221.53ZM232.651 313.192C233.851 313.192 234.827 312.632 235.451 311.688V316.2H236.731V305H235.643L235.483 306.376C234.859 305.4 233.851 304.808 232.587 304.808C230.427 304.808 228.731 306.536 228.731 308.968C228.731 311.512 230.587 313.192 232.651 313.192ZM230.075 309C230.075 307.288 231.179 306.056 232.715 306.056C234.283 306.056 235.419 307.288 235.419 309C235.419 310.696 234.315 311.912 232.779 311.912C231.211 311.912 230.075 310.696 230.075 309ZM245.464 313L245.432 311.4V305H244.152V309.384C244.152 310.904 243.048 311.88 241.784 311.88C240.584 311.88 239.799 310.984 239.799 309.768V305H238.52V309.896C238.52 311.8 239.816 313.192 241.592 313.192C242.808 313.192 243.832 312.568 244.184 311.64L244.344 313H245.464ZM250.807 313.192C252.599 313.192 254.103 312.168 254.455 310.76L253.015 310.312C252.823 311.24 251.863 311.912 250.807 311.912C249.495 311.912 248.503 310.92 248.311 309.496H254.503C254.519 309.368 254.519 309.288 254.519 309.224C254.519 306.664 253.047 304.808 250.743 304.808C248.503 304.808 246.903 306.584 246.903 309.032C246.903 311.448 248.503 313.192 250.807 313.192ZM248.343 308.248C248.583 306.936 249.495 306.056 250.679 306.056C251.831 306.056 252.887 306.84 253.143 308.248H248.343ZM261.719 308.232V313H262.999V308.136C262.999 306.2 261.703 304.808 259.895 304.808C258.615 304.808 257.671 305.48 257.255 306.472L257.079 305H255.991V313H257.271V308.712C257.271 307.192 258.375 306.088 259.703 306.088C260.903 306.088 261.719 306.984 261.719 308.232ZM271.956 310.248L270.484 309.8C270.388 311.08 269.428 311.912 268.212 311.912C266.804 311.912 265.716 310.76 265.716 309C265.716 307.272 266.804 306.056 268.212 306.056C269.38 306.056 270.292 306.92 270.42 308.072L271.828 307.624C271.508 305.992 270.02 304.808 268.212 304.808C266.036 304.808 264.34 306.536 264.34 309C264.34 311.512 266.084 313.192 268.276 313.192C270.132 313.192 271.668 311.976 271.956 310.248ZM276.76 313.192C278.552 313.192 280.056 312.168 280.408 310.76L278.968 310.312C278.776 311.24 277.816 311.912 276.76 311.912C275.448 311.912 274.456 310.92 274.264 309.496H280.456C280.472 309.368 280.472 309.288 280.472 309.224C280.472 306.664 279 304.808 276.696 304.808C274.456 304.808 272.856 306.584 272.856 309.032C272.856 311.448 274.456 313.192 276.76 313.192ZM274.296 308.248C274.536 306.936 275.448 306.056 276.632 306.056C277.784 306.056 278.84 306.84 279.096 308.248H274.296Z" fill="black"/>
<path d="M131.576 334.864C131.576 336.208 132.716 337.144 134.288 337.144C135.86 337.144 137 336.208 137 334.864C137 333.916 136.424 333.136 135.536 332.824C136.28 332.536 136.712 331.924 136.712 331.144C136.712 329.932 135.68 329.056 134.288 329.056C132.908 329.056 131.864 329.932 131.864 331.144C131.864 331.924 132.296 332.536 133.04 332.824C132.152 333.136 131.576 333.916 131.576 334.864ZM132.608 334.744C132.608 333.904 133.316 333.304 134.288 333.304C135.26 333.304 135.968 333.904 135.968 334.744C135.968 335.584 135.26 336.16 134.288 336.16C133.316 336.16 132.608 335.584 132.608 334.744ZM132.848 331.192C132.848 330.484 133.46 329.992 134.288 329.992C135.116 329.992 135.728 330.484 135.728 331.192C135.728 331.888 135.116 332.392 134.288 332.392C133.46 332.392 132.848 331.888 132.848 331.192ZM141.027 337H142.035V333.868H144.339L145.899 337H147.075L145.395 333.748C146.319 333.448 146.931 332.608 146.931 331.54C146.931 330.184 145.959 329.2 144.603 329.2H141.027V337ZM142.035 332.932V330.16H144.555C145.323 330.16 145.875 330.748 145.875 331.552C145.875 332.356 145.299 332.932 144.507 332.932H142.035ZM150.636 337.144C151.98 337.144 153.108 336.376 153.372 335.32L152.292 334.984C152.148 335.68 151.428 336.184 150.636 336.184C149.652 336.184 148.908 335.44 148.764 334.372H153.408C153.42 334.276 153.42 334.216 153.42 334.168C153.42 332.248 152.316 330.856 150.588 330.856C148.908 330.856 147.708 332.188 147.708 334.024C147.708 335.836 148.908 337.144 150.636 337.144ZM148.788 333.436C148.968 332.452 149.652 331.792 150.54 331.792C151.404 331.792 152.196 332.38 152.388 333.436H148.788ZM157.597 337.144C159.145 337.144 160.453 335.86 160.453 333.976C160.453 332.152 159.205 330.856 157.597 330.856C156.661 330.856 155.917 331.288 155.461 332.008L155.341 331H154.525V339.4H155.485V335.992C155.953 336.712 156.697 337.144 157.597 337.144ZM155.461 334C155.461 332.716 156.301 331.792 157.453 331.792C158.605 331.792 159.445 332.716 159.445 334C159.445 335.272 158.605 336.184 157.453 336.184C156.301 336.184 155.461 335.272 155.461 334ZM162.18 334.936L161.124 335.224C161.208 336.34 162.288 337.144 163.716 337.144C165.084 337.144 166.02 336.424 166.02 335.368C166.02 333.268 162.444 333.832 162.444 332.536C162.444 332.056 162.948 331.744 163.548 331.744C164.244 331.744 164.796 332.164 164.82 332.752L165.828 332.488C165.696 331.54 164.784 330.856 163.548 330.856C162.36 330.856 161.412 331.432 161.412 332.488C161.412 334.588 164.964 334 164.964 335.368C164.964 335.872 164.46 336.232 163.788 336.232C162.96 336.232 162.228 335.692 162.18 334.936Z" fill="black"/>
<path d="M194.168 337.144C195.74 337.144 196.904 336.04 196.904 334.504C196.904 333.112 195.992 332.104 194.648 332.008L196.664 330.184V329.2H191.816V330.16H195.416L193.112 332.248L193.736 332.968C193.88 332.896 194.072 332.872 194.216 332.872C195.08 332.872 195.848 333.496 195.848 334.504C195.848 335.428 195.152 336.136 194.192 336.136C193.208 336.136 192.512 335.44 192.512 334.456V333.856H191.48V334.528C191.48 336.052 192.608 337.144 194.168 337.144ZM201.561 334.264L200.457 334.552C200.553 336.088 201.861 337.144 203.625 337.144C205.317 337.144 206.457 336.22 206.457 334.888C206.457 332.236 201.873 332.764 201.873 331.096C201.873 330.448 202.593 330.016 203.409 330.016C204.369 330.016 204.969 330.64 205.065 331.456L206.169 331.144C206.025 329.896 204.897 329.056 203.409 329.056C201.945 329.056 200.793 329.872 200.793 331.144C200.793 333.676 205.353 333.028 205.353 334.888C205.353 335.632 204.609 336.16 203.649 336.16C202.461 336.16 201.609 335.368 201.561 334.264ZM210.203 337.144C211.547 337.144 212.675 336.376 212.939 335.32L211.859 334.984C211.715 335.68 210.995 336.184 210.203 336.184C209.219 336.184 208.475 335.44 208.331 334.372H212.975C212.987 334.276 212.987 334.216 212.987 334.168C212.987 332.248 211.883 330.856 210.155 330.856C208.475 330.856 207.275 332.188 207.275 334.024C207.275 335.836 208.475 337.144 210.203 337.144ZM208.355 333.436C208.535 332.452 209.219 331.792 210.107 331.792C210.971 331.792 211.763 332.38 211.955 333.436H208.355ZM213.326 331.936H214.31V335.608C214.31 336.532 214.97 337.144 215.942 337.144C216.17 337.144 216.422 337.108 216.614 337.048L216.59 336.088C216.446 336.136 216.254 336.16 216.086 336.16C215.594 336.16 215.27 335.86 215.27 335.416V331.936H216.59V331H215.27V329.464H214.358V330.256C214.358 330.688 214.082 331 213.71 331H213.326V331.936ZM218.289 334.936L217.233 335.224C217.317 336.34 218.397 337.144 219.825 337.144C221.193 337.144 222.129 336.424 222.129 335.368C222.129 333.268 218.553 333.832 218.553 332.536C218.553 332.056 219.057 331.744 219.657 331.744C220.353 331.744 220.905 332.164 220.929 332.752L221.937 332.488C221.805 331.54 220.893 330.856 219.657 330.856C218.469 330.856 217.521 331.432 217.521 332.488C217.521 334.588 221.073 334 221.073 335.368C221.073 335.872 220.569 336.232 219.897 336.232C219.069 336.232 218.337 335.692 218.289 334.936Z" fill="black"/>
<line x1="175" y1="332.5" x2="183" y2="332.5" stroke="black"/>
<path d="M332.794 324.5H330C329.867 324.5 329.74 324.447 329.646 324.353C329.553 324.26 329.5 324.133 329.5 324V321.206C329.5 321.141 329.512 321.077 329.537 321.017C329.562 320.957 329.598 320.902 329.644 320.856L337.144 313.356C337.19 313.309 337.246 313.271 337.307 313.246C337.368 313.22 337.434 313.207 337.5 313.207C337.566 313.207 337.632 313.22 337.693 313.246C337.754 313.271 337.81 313.309 337.856 313.356L340.644 316.144C340.691 316.19 340.729 316.246 340.754 316.307C340.78 316.368 340.793 316.434 340.793 316.5C340.793 316.566 340.78 316.632 340.754 316.693C340.729 316.754 340.691 316.81 340.644 316.856L333.144 324.356C333.098 324.402 333.043 324.438 332.983 324.463C332.923 324.488 332.859 324.5 332.794 324.5V324.5Z" stroke="black" stroke-linecap="round" stroke-linejoin="round"/>
<path d="M335.5 315L339 318.5" stroke="black" stroke-linecap="round" stroke-linejoin="round"/>
<circle cx="335" cy="319" r="15.5" stroke="black"/>
<rect x="79" y="291" width="40" height="56" rx="8" fill="#5D47BF"/>
<path d="M107.25 313.75L96.75 324.25L91.5 319" stroke="white" stroke-width="2" stroke-linecap="round" stroke-linejoin="round"/>
</g>
<g filter="url(#filter3_d_1825_6420)">
<rect x="63" y="379" width="304" height="88" rx="16" fill="white"/>
<rect x="79.5" y="395.5" width="39" height="55" rx="7.5" stroke="black"/>
<path d="M132.088 417H136.952C138.68 417 140.024 415.768 140.024 414.184C140.024 413 139.256 411.992 138.04 411.592C139.032 411.16 139.64 410.28 139.64 409.256C139.64 407.736 138.312 406.6 136.536 406.6H132.088V417ZM133.432 415.688V412.328H136.76C137.848 412.328 138.648 413.032 138.648 414.008C138.648 414.984 137.848 415.688 136.76 415.688H133.432ZM133.432 411.048V407.88H136.504C137.544 407.88 138.296 408.552 138.296 409.464C138.296 410.376 137.544 411.048 136.504 411.048H133.432ZM146.258 413.16V413.672C146.258 414.952 145.186 415.944 143.858 415.944C142.962 415.944 142.45 415.512 142.45 414.888C142.45 414.296 142.834 413.816 143.602 413.672L145.714 413.288C145.938 413.24 146.146 413.208 146.258 413.16ZM141.042 414.888C141.042 416.232 142.066 417.192 143.602 417.192C144.882 417.192 145.842 416.616 146.306 415.688L146.514 417H147.57L147.538 415.4V411.688C147.538 409.944 146.194 408.808 144.466 408.808C142.754 408.808 141.458 410.008 141.298 411.656L142.706 411.88C142.738 410.76 143.442 409.96 144.498 409.96C145.522 409.96 146.258 410.68 146.258 411.688V411.752C146.258 411.976 146.05 412.152 145.746 412.2L143.282 412.648C141.81 412.92 141.042 413.736 141.042 414.888ZM156.503 414.248L155.031 413.8C154.935 415.08 153.975 415.912 152.759 415.912C151.351 415.912 150.263 414.76 150.263 413C150.263 411.272 151.351 410.056 152.759 410.056C153.927 410.056 154.839 410.92 154.967 412.072L156.375 411.624C156.055 409.992 154.567 408.808 152.759 408.808C150.583 408.808 148.887 410.536 148.887 413C148.887 415.512 150.631 417.192 152.823 417.192C154.679 417.192 156.215 415.976 156.503 414.248ZM157.979 406.12V417H159.259V414.856L160.667 413.336L163.355 417H164.955L161.531 412.392L164.635 409H162.907L159.259 413.112V406.12H157.979ZM169.588 417H170.932V412.824H174.004L176.084 417H177.652L175.412 412.664C176.644 412.264 177.46 411.144 177.46 409.72C177.46 407.912 176.164 406.6 174.356 406.6H169.588V417ZM170.932 411.576V407.88H174.292C175.316 407.88 176.052 408.664 176.052 409.736C176.052 410.808 175.284 411.576 174.228 411.576H170.932ZM182.496 417.192C184.816 417.192 186.496 415.432 186.496 413C186.496 410.568 184.816 408.808 182.496 408.808C180.176 408.808 178.496 410.568 178.496 413C178.496 415.432 180.176 417.192 182.496 417.192ZM179.84 413C179.84 411.288 180.96 410.056 182.496 410.056C184.032 410.056 185.152 411.288 185.152 413C185.152 414.696 184.032 415.912 182.496 415.912C180.96 415.912 179.84 414.696 179.84 413ZM187.337 409L188.617 417H190.217L191.977 410.728L193.673 417H195.209L196.617 409H195.337L194.377 415.336L192.713 409H191.305L189.545 415.336L188.681 409H187.337ZM198.792 414.248L197.384 414.632C197.496 416.12 198.936 417.192 200.84 417.192C202.664 417.192 203.912 416.232 203.912 414.824C203.912 412.024 199.144 412.776 199.144 411.048C199.144 410.408 199.816 409.992 200.616 409.992C201.544 409.992 202.28 410.552 202.312 411.336L203.656 410.984C203.48 409.72 202.264 408.808 200.616 408.808C199.032 408.808 197.768 409.576 197.768 410.984C197.768 413.784 202.504 413 202.504 414.824C202.504 415.496 201.832 415.976 200.936 415.976C199.832 415.976 198.856 415.256 198.792 414.248Z" fill="black"/>
<path d="M131.576 438.864C131.576 440.208 132.716 441.144 134.288 441.144C135.86 441.144 137 440.208 137 438.864C137 437.916 136.424 437.136 135.536 436.824C136.28 436.536 136.712 435.924 136.712 435.144C136.712 433.932 135.68 433.056 134.288 433.056C132.908 433.056 131.864 433.932 131.864 435.144C131.864 435.924 132.296 436.536 133.04 436.824C132.152 437.136 131.576 437.916 131.576 438.864ZM132.608 438.744C132.608 437.904 133.316 437.304 134.288 437.304C135.26 437.304 135.968 437.904 135.968 438.744C135.968 439.584 135.26 440.16 134.288 440.16C133.316 440.16 132.608 439.584 132.608 438.744ZM132.848 435.192C132.848 434.484 133.46 433.992 134.288 433.992C135.116 433.992 135.728 434.484 135.728 435.192C135.728 435.888 135.116 436.392 134.288 436.392C133.46 436.392 132.848 435.888 132.848 435.192ZM141.027 441H142.035V437.868H144.339L145.899 441H147.075L145.395 437.748C146.319 437.448 146.931 436.608 146.931 435.54C146.931 434.184 145.959 433.2 144.603 433.2H141.027V441ZM142.035 436.932V434.16H144.555C145.323 434.16 145.875 434.748 145.875 435.552C145.875 436.356 145.299 436.932 144.507 436.932H142.035ZM150.636 441.144C151.98 441.144 153.108 440.376 153.372 439.32L152.292 438.984C152.148 439.68 151.428 440.184 150.636 440.184C149.652 440.184 148.908 439.44 148.764 438.372H153.408C153.42 438.276 153.42 438.216 153.42 438.168C153.42 436.248 152.316 434.856 150.588 434.856C148.908 434.856 147.708 436.188 147.708 438.024C147.708 439.836 148.908 441.144 150.636 441.144ZM148.788 437.436C148.968 436.452 149.652 435.792 150.54 435.792C151.404 435.792 152.196 436.38 152.388 437.436H148.788ZM157.597 441.144C159.145 441.144 160.453 439.86 160.453 437.976C160.453 436.152 159.205 434.856 157.597 434.856C156.661 434.856 155.917 435.288 155.461 436.008L155.341 435H154.525V443.4H155.485V439.992C155.953 440.712 156.697 441.144 157.597 441.144ZM155.461 438C155.461 436.716 156.301 435.792 157.453 435.792C158.605 435.792 159.445 436.716 159.445 438C159.445 439.272 158.605 440.184 157.453 440.184C156.301 440.184 155.461 439.272 155.461 438ZM162.18 438.936L161.124 439.224C161.208 440.34 162.288 441.144 163.716 441.144C165.084 441.144 166.02 440.424 166.02 439.368C166.02 437.268 162.444 437.832 162.444 436.536C162.444 436.056 162.948 435.744 163.548 435.744C164.244 435.744 164.796 436.164 164.82 436.752L165.828 436.488C165.696 435.54 164.784 434.856 163.548 434.856C162.36 434.856 161.412 435.432 161.412 436.488C161.412 438.588 164.964 438 164.964 439.368C164.964 439.872 164.46 440.232 163.788 440.232C162.96 440.232 162.228 439.692 162.18 438.936Z" fill="black"/>
<path d="M194.168 441.144C195.74 441.144 196.904 440.04 196.904 438.504C196.904 437.112 195.992 436.104 194.648 436.008L196.664 434.184V433.2H191.816V434.16H195.416L193.112 436.248L193.736 436.968C193.88 436.896 194.072 436.872 194.216 436.872C195.08 436.872 195.848 437.496 195.848 438.504C195.848 439.428 195.152 440.136 194.192 440.136C193.208 440.136 192.512 439.44 192.512 438.456V437.856H191.48V438.528C191.48 440.052 192.608 441.144 194.168 441.144ZM201.561 438.264L200.457 438.552C200.553 440.088 201.861 441.144 203.625 441.144C205.317 441.144 206.457 440.22 206.457 438.888C206.457 436.236 201.873 436.764 201.873 435.096C201.873 434.448 202.593 434.016 203.409 434.016C204.369 434.016 204.969 434.64 205.065 435.456L206.169 435.144C206.025 433.896 204.897 433.056 203.409 433.056C201.945 433.056 200.793 433.872 200.793 435.144C200.793 437.676 205.353 437.028 205.353 438.888C205.353 439.632 204.609 440.16 203.649 440.16C202.461 440.16 201.609 439.368 201.561 438.264ZM210.203 441.144C211.547 441.144 212.675 440.376 212.939 439.32L211.859 438.984C211.715 439.68 210.995 440.184 210.203 440.184C209.219 440.184 208.475 439.44 208.331 438.372H212.975C212.987 438.276 212.987 438.216 212.987 438.168C212.987 436.248 211.883 434.856 210.155 434.856C208.475 434.856 207.275 436.188 207.275 438.024C207.275 439.836 208.475 441.144 210.203 441.144ZM208.355 437.436C208.535 436.452 209.219 435.792 210.107 435.792C210.971 435.792 211.763 436.38 211.955 437.436H208.355ZM213.326 435.936H214.31V439.608C214.31 440.532 214.97 441.144 215.942 441.144C216.17 441.144 216.422 441.108 216.614 441.048L216.59 440.088C216.446 440.136 216.254 440.16 216.086 440.16C215.594 440.16 215.27 439.86 215.27 439.416V435.936H216.59V435H215.27V433.464H214.358V434.256C214.358 434.688 214.082 435 213.71 435H213.326V435.936ZM218.289 438.936L217.233 439.224C217.317 440.34 218.397 441.144 219.825 441.144C221.193 441.144 222.129 440.424 222.129 439.368C222.129 437.268 218.553 437.832 218.553 436.536C218.553 436.056 219.057 435.744 219.657 435.744C220.353 435.744 220.905 436.164 220.929 436.752L221.937 436.488C221.805 435.54 220.893 434.856 219.657 434.856C218.469 434.856 217.521 435.432 217.521 436.488C217.521 438.588 221.073 438 221.073 439.368C221.073 439.872 220.569 440.232 219.897 440.232C219.069 440.232 218.337 439.692 218.289 438.936Z" fill="black"/>
<line x1="175" y1="436.5" x2="183" y2="436.5" stroke="black"/>
<path d="M332.794 428.5H330C329.867 428.5 329.74 428.447 329.646 428.353C329.553 428.26 329.5 428.133 329.5 428V425.206C329.5 425.141 329.512 425.077 329.537 425.017C329.562 424.957 329.598 424.902 329.644 424.856L337.144 417.356C337.19 417.309 337.246 417.271 337.307 417.246C337.368 417.22 337.434 417.207 337.5 417.207C337.566 417.207 337.632 417.22 337.693 417.246C337.754 417.271 337.81 417.309 337.856 417.356L340.644 420.144C340.691 420.19 340.729 420.246 340.754 420.307C340.78 420.368 340.793 420.434 340.793 420.5C340.793 420.566 340.78 420.632 340.754 420.693C340.729 420.754 340.691 420.81 340.644 420.856L333.144 428.356C333.098 428.402 333.043 428.438 332.983 428.463C332.923 428.488 332.859 428.5 332.794 428.5V428.5Z" stroke="black" stroke-linecap="round" stroke-linejoin="round"/>
<path d="M335.5 419L339 422.5" stroke="black" stroke-linecap="round" stroke-linejoin="round"/>
<circle cx="335" cy="423" r="15.5" stroke="black"/>
</g>
<g filter="url(#filter4_d_1825_6420)">
<rect x="62" y="483" width="304" height="88" rx="16" fill="white"/>
<rect x="78.5" y="499.5" width="39" height="55" rx="7.5" stroke="black"/>
<path d="M131.088 521H135.952C137.68 521 139.024 519.768 139.024 518.184C139.024 517 138.256 515.992 137.04 515.592C138.032 515.16 138.64 514.28 138.64 513.256C138.64 511.736 137.312 510.6 135.536 510.6H131.088V521ZM132.432 519.688V516.328H135.76C136.848 516.328 137.648 517.032 137.648 518.008C137.648 518.984 136.848 519.688 135.76 519.688H132.432ZM132.432 515.048V511.88H135.504C136.544 511.88 137.296 512.552 137.296 513.464C137.296 514.376 136.544 515.048 135.504 515.048H132.432ZM144.01 521.192C145.802 521.192 147.306 520.168 147.658 518.76L146.218 518.312C146.026 519.24 145.066 519.912 144.01 519.912C142.698 519.912 141.706 518.92 141.514 517.496H147.706C147.722 517.368 147.722 517.288 147.722 517.224C147.722 514.664 146.25 512.808 143.946 512.808C141.706 512.808 140.106 514.584 140.106 517.032C140.106 519.448 141.706 521.192 144.01 521.192ZM141.546 516.248C141.786 514.936 142.698 514.056 143.882 514.056C145.034 514.056 146.09 514.84 146.346 516.248H141.546ZM154.922 516.232V521H156.202V516.136C156.202 514.2 154.906 512.808 153.098 512.808C151.818 512.808 150.874 513.48 150.458 514.472L150.282 513H149.194V521H150.474V516.712C150.474 515.192 151.578 514.088 152.906 514.088C154.106 514.088 154.922 514.984 154.922 516.232ZM165.159 518.248L163.687 517.8C163.591 519.08 162.631 519.912 161.415 519.912C160.007 519.912 158.919 518.76 158.919 517C158.919 515.272 160.007 514.056 161.415 514.056C162.583 514.056 163.495 514.92 163.623 516.072L165.031 515.624C164.711 513.992 163.223 512.808 161.415 512.808C159.239 512.808 157.543 514.536 157.543 517C157.543 519.512 159.287 521.192 161.479 521.192C163.335 521.192 164.871 519.976 165.159 518.248ZM172.363 516.232V521H173.643V516.136C173.643 514.2 172.347 512.808 170.539 512.808C169.323 512.808 168.299 513.384 167.915 514.328V510.12H166.635V521H167.915V516.712C167.915 515.192 169.019 514.088 170.347 514.088C171.547 514.088 172.363 514.984 172.363 516.232ZM179.072 521H180.416V517.16H183.392C185.296 517.16 186.688 515.768 186.688 513.864C186.688 511.976 185.328 510.6 183.456 510.6H179.072V521ZM180.416 515.88V511.88H183.392C184.48 511.88 185.28 512.712 185.28 513.88C185.28 515.048 184.48 515.88 183.392 515.88H180.416ZM187.976 521H189.256V516.392C189.256 515.144 190.056 514.248 191.176 514.248C191.432 514.248 191.816 514.312 192.136 514.504L192.2 513C191.928 512.888 191.624 512.808 191.304 512.808C190.376 512.808 189.608 513.4 189.224 514.328L189.064 513H187.976V521ZM196.682 521.192C198.474 521.192 199.978 520.168 200.33 518.76L198.89 518.312C198.698 519.24 197.738 519.912 196.682 519.912C195.37 519.912 194.378 518.92 194.186 517.496H200.378C200.394 517.368 200.394 517.288 200.394 517.224C200.394 514.664 198.922 512.808 196.618 512.808C194.378 512.808 192.778 514.584 192.778 517.032C192.778 519.448 194.378 521.192 196.682 521.192ZM194.218 516.248C194.458 514.936 195.37 514.056 196.554 514.056C197.706 514.056 198.762 514.84 199.018 516.248H194.218ZM202.698 518.248L201.29 518.632C201.402 520.12 202.842 521.192 204.746 521.192C206.57 521.192 207.818 520.232 207.818 518.824C207.818 516.024 203.05 516.776 203.05 515.048C203.05 514.408 203.722 513.992 204.522 513.992C205.45 513.992 206.186 514.552 206.218 515.336L207.562 514.984C207.386 513.72 206.17 512.808 204.522 512.808C202.938 512.808 201.674 513.576 201.674 514.984C201.674 517.784 206.41 517 206.41 518.824C206.41 519.496 205.738 519.976 204.842 519.976C203.738 519.976 202.762 519.256 202.698 518.248ZM209.995 518.248L208.587 518.632C208.699 520.12 210.139 521.192 212.043 521.192C213.867 521.192 215.115 520.232 215.115 518.824C215.115 516.024 210.347 516.776 210.347 515.048C210.347 514.408 211.019 513.992 211.819 513.992C212.747 513.992 213.483 514.552 213.515 515.336L214.859 514.984C214.683 513.72 213.467 512.808 211.819 512.808C210.235 512.808 208.971 513.576 208.971 514.984C208.971 517.784 213.707 517 213.707 518.824C213.707 519.496 213.035 519.976 212.139 519.976C211.035 519.976 210.059 519.256 209.995 518.248Z" fill="black"/>
<path d="M130.576 542.864C130.576 544.208 131.716 545.144 133.288 545.144C134.86 545.144 136 544.208 136 542.864C136 541.916 135.424 541.136 134.536 540.824C135.28 540.536 135.712 539.924 135.712 539.144C135.712 537.932 134.68 537.056 133.288 537.056C131.908 537.056 130.864 537.932 130.864 539.144C130.864 539.924 131.296 540.536 132.04 540.824C131.152 541.136 130.576 541.916 130.576 542.864ZM131.608 542.744C131.608 541.904 132.316 541.304 133.288 541.304C134.26 541.304 134.968 541.904 134.968 542.744C134.968 543.584 134.26 544.16 133.288 544.16C132.316 544.16 131.608 543.584 131.608 542.744ZM131.848 539.192C131.848 538.484 132.46 537.992 133.288 537.992C134.116 537.992 134.728 538.484 134.728 539.192C134.728 539.888 134.116 540.392 133.288 540.392C132.46 540.392 131.848 539.888 131.848 539.192ZM140.027 545H141.035V541.868H143.339L144.899 545H146.075L144.395 541.748C145.319 541.448 145.931 540.608 145.931 539.54C145.931 538.184 144.959 537.2 143.603 537.2H140.027V545ZM141.035 540.932V538.16H143.555C144.323 538.16 144.875 538.748 144.875 539.552C144.875 540.356 144.299 540.932 143.507 540.932H141.035ZM149.636 545.144C150.98 545.144 152.108 544.376 152.372 543.32L151.292 542.984C151.148 543.68 150.428 544.184 149.636 544.184C148.652 544.184 147.908 543.44 147.764 542.372H152.408C152.42 542.276 152.42 542.216 152.42 542.168C152.42 540.248 151.316 538.856 149.588 538.856C147.908 538.856 146.708 540.188 146.708 542.024C146.708 543.836 147.908 545.144 149.636 545.144ZM147.788 541.436C147.968 540.452 148.652 539.792 149.54 539.792C150.404 539.792 151.196 540.38 151.388 541.436H147.788ZM156.597 545.144C158.145 545.144 159.453 543.86 159.453 541.976C159.453 540.152 158.205 538.856 156.597 538.856C155.661 538.856 154.917 539.288 154.461 540.008L154.341 539H153.525V547.4H154.485V543.992C154.953 544.712 155.697 545.144 156.597 545.144ZM154.461 542C154.461 540.716 155.301 539.792 156.453 539.792C157.605 539.792 158.445 540.716 158.445 542C158.445 543.272 157.605 544.184 156.453 544.184C155.301 544.184 154.461 543.272 154.461 542ZM161.18 542.936L160.124 543.224C160.208 544.34 161.288 545.144 162.716 545.144C164.084 545.144 165.02 544.424 165.02 543.368C165.02 541.268 161.444 541.832 161.444 540.536C161.444 540.056 161.948 539.744 162.548 539.744C163.244 539.744 163.796 540.164 163.82 540.752L164.828 540.488C164.696 539.54 163.784 538.856 162.548 538.856C161.36 538.856 160.412 539.432 160.412 540.488C160.412 542.588 163.964 542 163.964 543.368C163.964 543.872 163.46 544.232 162.788 544.232C161.96 544.232 161.228 543.692 161.18 542.936Z" fill="black"/>
<path d="M193.168 545.144C194.74 545.144 195.904 544.04 195.904 542.504C195.904 541.112 194.992 540.104 193.648 540.008L195.664 538.184V537.2H190.816V538.16H194.416L192.112 540.248L192.736 540.968C192.88 540.896 193.072 540.872 193.216 540.872C194.08 540.872 194.848 541.496 194.848 542.504C194.848 543.428 194.152 544.136 193.192 544.136C192.208 544.136 191.512 543.44 191.512 542.456V541.856H190.48V542.528C190.48 544.052 191.608 545.144 193.168 545.144ZM200.561 542.264L199.457 542.552C199.553 544.088 200.861 545.144 202.625 545.144C204.317 545.144 205.457 544.22 205.457 542.888C205.457 540.236 200.873 540.764 200.873 539.096C200.873 538.448 201.593 538.016 202.409 538.016C203.369 538.016 203.969 538.64 204.065 539.456L205.169 539.144C205.025 537.896 203.897 537.056 202.409 537.056C200.945 537.056 199.793 537.872 199.793 539.144C199.793 541.676 204.353 541.028 204.353 542.888C204.353 543.632 203.609 544.16 202.649 544.16C201.461 544.16 200.609 543.368 200.561 542.264ZM209.203 545.144C210.547 545.144 211.675 544.376 211.939 543.32L210.859 542.984C210.715 543.68 209.995 544.184 209.203 544.184C208.219 544.184 207.475 543.44 207.331 542.372H211.975C211.987 542.276 211.987 542.216 211.987 542.168C211.987 540.248 210.883 538.856 209.155 538.856C207.475 538.856 206.275 540.188 206.275 542.024C206.275 543.836 207.475 545.144 209.203 545.144ZM207.355 541.436C207.535 540.452 208.219 539.792 209.107 539.792C209.971 539.792 210.763 540.38 210.955 541.436H207.355ZM212.326 539.936H213.31V543.608C213.31 544.532 213.97 545.144 214.942 545.144C215.17 545.144 215.422 545.108 215.614 545.048L215.59 544.088C215.446 544.136 215.254 544.16 215.086 544.16C214.594 544.16 214.27 543.86 214.27 543.416V539.936H215.59V539H214.27V537.464H213.358V538.256C213.358 538.688 213.082 539 212.71 539H212.326V539.936ZM217.289 542.936L216.233 543.224C216.317 544.34 217.397 545.144 218.825 545.144C220.193 545.144 221.129 544.424 221.129 543.368C221.129 541.268 217.553 541.832 217.553 540.536C217.553 540.056 218.057 539.744 218.657 539.744C219.353 539.744 219.905 540.164 219.929 540.752L220.937 540.488C220.805 539.54 219.893 538.856 218.657 538.856C217.469 538.856 216.521 539.432 216.521 540.488C216.521 542.588 220.073 542 220.073 543.368C220.073 543.872 219.569 544.232 218.897 544.232C218.069 544.232 217.337 543.692 217.289 542.936Z" fill="black"/>
<line x1="174" y1="540.5" x2="182" y2="540.5" stroke="black"/>
<path d="M331.794 532.5H329C328.867 532.5 328.74 532.447 328.646 532.353C328.553 532.26 328.5 532.133 328.5 532V529.206C328.5 529.141 328.512 529.077 328.537 529.017C328.562 528.957 328.598 528.902 328.644 528.856L336.144 521.356C336.19 521.309 336.246 521.271 336.307 521.246C336.368 521.22 336.434 521.207 336.5 521.207C336.566 521.207 336.632 521.22 336.693 521.246C336.754 521.271 336.81 521.309 336.856 521.356L339.644 524.144C339.691 524.19 339.729 524.246 339.754 524.307C339.78 524.368 339.793 524.434 339.793 524.5C339.793 524.566 339.78 524.632 339.754 524.693C339.729 524.754 339.691 524.81 339.644 524.856L332.144 532.356C332.098 532.402 332.043 532.438 331.983 532.463C331.923 532.488 331.859 532.5 331.794 532.5V532.5Z" stroke="black" stroke-linecap="round" stroke-linejoin="round"/>
<path d="M334.5 523L338 526.5" stroke="black" stroke-linecap="round" stroke-linejoin="round"/>
<circle cx="334" cy="527" r="15.5" stroke="black"/>
</g>
<g filter="url(#filter5_d_1825_6420)">
<rect x="62" y="587" width="304" height="88" rx="16" fill="white"/>
<rect x="78.5" y="603.5" width="39" height="55" rx="7.5" stroke="black"/>
<path d="M133.744 625H135.088V615.88H138.8V614.6H130.032V615.88H133.744V625ZM138.757 625H140.037V620.392C140.037 619.144 140.837 618.248 141.957 618.248C142.213 618.248 142.597 618.312 142.917 618.504L142.981 617C142.709 616.888 142.405 616.808 142.085 616.808C141.157 616.808 140.389 617.4 140.005 618.328L139.845 617H138.757V625ZM144.292 617V625H145.572V617H144.292ZM143.94 614.952C143.94 615.544 144.356 615.976 144.932 615.976C145.508 615.976 145.924 615.544 145.924 614.952C145.924 614.36 145.508 613.928 144.932 613.928C144.356 613.928 143.94 614.36 143.94 614.952ZM154.816 622.248L153.344 621.8C153.248 623.08 152.288 623.912 151.072 623.912C149.664 623.912 148.576 622.76 148.576 621C148.576 619.272 149.664 618.056 151.072 618.056C152.24 618.056 153.152 618.92 153.28 620.072L154.688 619.624C154.368 617.992 152.88 616.808 151.072 616.808C148.896 616.808 147.2 618.536 147.2 621C147.2 623.512 148.944 625.192 151.136 625.192C152.992 625.192 154.528 623.976 154.816 622.248ZM159.619 625.192C161.411 625.192 162.915 624.168 163.267 622.76L161.827 622.312C161.635 623.24 160.675 623.912 159.619 623.912C158.307 623.912 157.315 622.92 157.123 621.496H163.315C163.331 621.368 163.331 621.288 163.331 621.224C163.331 618.664 161.859 616.808 159.555 616.808C157.315 616.808 155.715 618.584 155.715 621.032C155.715 623.448 157.315 625.192 159.619 625.192ZM157.155 620.248C157.395 618.936 158.307 618.056 159.491 618.056C160.643 618.056 161.699 618.84 161.955 620.248H157.155ZM168.9 625.192C170.964 625.192 172.708 623.48 172.708 620.968C172.708 618.536 171.044 616.808 168.9 616.808C167.652 616.808 166.66 617.384 166.052 618.344L165.892 617H164.804V628.2H166.084V623.656C166.708 624.616 167.7 625.192 168.9 625.192ZM166.052 621C166.052 619.288 167.172 618.056 168.708 618.056C170.244 618.056 171.364 619.288 171.364 621C171.364 622.696 170.244 623.912 168.708 623.912C167.172 623.912 166.052 622.696 166.052 621ZM177.822 625H185.054V623.688H179.166V620.328H184.158V619.048H179.166V615.88H184.926V614.6H177.822V625ZM185.595 625L188.603 620.872L185.723 617H187.323L189.435 619.816L191.419 617H193.019L190.203 620.904L193.275 625H191.707L189.435 621.96L187.259 625H185.595ZM193.441 618.248H194.753V623.144C194.753 624.376 195.633 625.192 196.929 625.192C197.233 625.192 197.569 625.144 197.825 625.064L197.793 623.784C197.601 623.848 197.345 623.88 197.121 623.88C196.465 623.88 196.033 623.48 196.033 622.888V618.248H197.793V617H196.033V614.952H194.817V616.008C194.817 616.584 194.449 617 193.953 617H193.441V618.248ZM202.557 625.192C204.349 625.192 205.853 624.168 206.205 622.76L204.765 622.312C204.573 623.24 203.613 623.912 202.557 623.912C201.245 623.912 200.253 622.92 200.061 621.496H206.253C206.269 621.368 206.269 621.288 206.269 621.224C206.269 618.664 204.797 616.808 202.493 616.808C200.253 616.808 198.653 618.584 198.653 621.032C198.653 623.448 200.253 625.192 202.557 625.192ZM200.093 620.248C200.333 618.936 201.245 618.056 202.429 618.056C203.581 618.056 204.637 618.84 204.893 620.248H200.093ZM213.469 620.232V625H214.749V620.136C214.749 618.2 213.453 616.808 211.645 616.808C210.365 616.808 209.421 617.48 209.005 618.472L208.829 617H207.741V625H209.021V620.712C209.021 619.192 210.125 618.088 211.453 618.088C212.653 618.088 213.469 618.984 213.469 620.232ZM217.183 622.248L215.775 622.632C215.887 624.12 217.327 625.192 219.231 625.192C221.055 625.192 222.303 624.232 222.303 622.824C222.303 620.024 217.535 620.776 217.535 619.048C217.535 618.408 218.207 617.992 219.007 617.992C219.935 617.992 220.671 618.552 220.703 619.336L222.047 618.984C221.871 617.72 220.655 616.808 219.007 616.808C217.423 616.808 216.159 617.576 216.159 618.984C216.159 621.784 220.895 621 220.895 622.824C220.895 623.496 220.223 623.976 219.327 623.976C218.223 623.976 217.247 623.256 217.183 622.248ZM223.808 617V625H225.088V617H223.808ZM223.456 614.952C223.456 615.544 223.872 615.976 224.448 615.976C225.024 615.976 225.44 615.544 225.44 614.952C225.44 614.36 225.024 613.928 224.448 613.928C223.872 613.928 223.456 614.36 223.456 614.952ZM230.715 625.192C233.035 625.192 234.715 623.432 234.715 621C234.715 618.568 233.035 616.808 230.715 616.808C228.395 616.808 226.715 618.568 226.715 621C226.715 623.432 228.395 625.192 230.715 625.192ZM228.059 621C228.059 619.288 229.179 618.056 230.715 618.056C232.251 618.056 233.371 619.288 233.371 621C233.371 622.696 232.251 623.912 230.715 623.912C229.179 623.912 228.059 622.696 228.059 621ZM241.922 620.232V625H243.202V620.136C243.202 618.2 241.906 616.808 240.098 616.808C238.818 616.808 237.874 617.48 237.458 618.472L237.282 617H236.194V625H237.474V620.712C237.474 619.192 238.578 618.088 239.906 618.088C241.106 618.088 241.922 618.984 241.922 620.232ZM245.636 622.248L244.228 622.632C244.34 624.12 245.78 625.192 247.684 625.192C249.508 625.192 250.756 624.232 250.756 622.824C250.756 620.024 245.988 620.776 245.988 619.048C245.988 618.408 246.66 617.992 247.46 617.992C248.388 617.992 249.124 618.552 249.156 619.336L250.5 618.984C250.324 617.72 249.108 616.808 247.46 616.808C245.876 616.808 244.612 617.576 244.612 618.984C244.612 621.784 249.348 621 249.348 622.824C249.348 623.496 248.676 623.976 247.78 623.976C246.676 623.976 245.7 623.256 245.636 622.248Z" fill="black"/>
<path d="M131.68 649H132.688V641.2H131.728V641.728C131.704 642.424 131.236 642.928 130.624 642.928H130.096V643.84H131.68V649ZM137.296 649.144C139.216 649.144 140.608 647.44 140.608 645.1C140.608 642.76 139.216 641.056 137.296 641.056C135.376 641.056 133.984 642.76 133.984 645.1C133.984 647.44 135.376 649.144 137.296 649.144ZM135.04 645.088C135.04 643.324 135.988 642.04 137.296 642.04C138.604 642.04 139.552 643.324 139.552 645.088C139.552 646.852 138.604 648.136 137.296 648.136C135.988 648.136 135.04 646.852 135.04 645.088ZM144.539 649H145.547V645.868H147.851L149.411 649H150.587L148.907 645.748C149.831 645.448 150.443 644.608 150.443 643.54C150.443 642.184 149.471 641.2 148.115 641.2H144.539V649ZM145.547 644.932V642.16H148.067C148.835 642.16 149.387 642.748 149.387 643.552C149.387 644.356 148.811 644.932 148.019 644.932H145.547ZM154.148 649.144C155.492 649.144 156.62 648.376 156.884 647.32L155.804 646.984C155.66 647.68 154.94 648.184 154.148 648.184C153.164 648.184 152.42 647.44 152.276 646.372H156.92C156.932 646.276 156.932 646.216 156.932 646.168C156.932 644.248 155.828 642.856 154.1 642.856C152.42 642.856 151.22 644.188 151.22 646.024C151.22 647.836 152.42 649.144 154.148 649.144ZM152.3 645.436C152.48 644.452 153.164 643.792 154.052 643.792C154.916 643.792 155.708 644.38 155.9 645.436H152.3ZM161.108 649.144C162.656 649.144 163.964 647.86 163.964 645.976C163.964 644.152 162.716 642.856 161.108 642.856C160.172 642.856 159.428 643.288 158.972 644.008L158.852 643H158.036V651.4H158.996V647.992C159.464 648.712 160.208 649.144 161.108 649.144ZM158.972 646C158.972 644.716 159.812 643.792 160.964 643.792C162.116 643.792 162.956 644.716 162.956 646C162.956 647.272 162.116 648.184 160.964 648.184C159.812 648.184 158.972 647.272 158.972 646ZM165.692 646.936L164.636 647.224C164.72 648.34 165.8 649.144 167.228 649.144C168.596 649.144 169.532 648.424 169.532 647.368C169.532 645.268 165.956 645.832 165.956 644.536C165.956 644.056 166.46 643.744 167.06 643.744C167.756 643.744 168.308 644.164 168.332 644.752L169.34 644.488C169.208 643.54 168.296 642.856 167.06 642.856C165.872 642.856 164.924 643.432 164.924 644.488C164.924 646.588 168.476 646 168.476 647.368C168.476 647.872 167.972 648.232 167.3 648.232C166.472 648.232 165.74 647.692 165.692 646.936Z" fill="black"/>
<path d="M197.168 649.144C198.74 649.144 199.904 648.04 199.904 646.504C199.904 645.112 198.992 644.104 197.648 644.008L199.664 642.184V641.2H194.816V642.16H198.416L196.112 644.248L196.736 644.968C196.88 644.896 197.072 644.872 197.216 644.872C198.08 644.872 198.848 645.496 198.848 646.504C198.848 647.428 198.152 648.136 197.192 648.136C196.208 648.136 195.512 647.44 195.512 646.456V645.856H194.48V646.528C194.48 648.052 195.608 649.144 197.168 649.144ZM204.561 646.264L203.457 646.552C203.553 648.088 204.861 649.144 206.625 649.144C208.317 649.144 209.457 648.22 209.457 646.888C209.457 644.236 204.873 644.764 204.873 643.096C204.873 642.448 205.593 642.016 206.409 642.016C207.369 642.016 207.969 642.64 208.065 643.456L209.169 643.144C209.025 641.896 207.897 641.056 206.409 641.056C204.945 641.056 203.793 641.872 203.793 643.144C203.793 645.676 208.353 645.028 208.353 646.888C208.353 647.632 207.609 648.16 206.649 648.16C205.461 648.16 204.609 647.368 204.561 646.264ZM213.203 649.144C214.547 649.144 215.675 648.376 215.939 647.32L214.859 646.984C214.715 647.68 213.995 648.184 213.203 648.184C212.219 648.184 211.475 647.44 211.331 646.372H215.975C215.987 646.276 215.987 646.216 215.987 646.168C215.987 644.248 214.883 642.856 213.155 642.856C211.475 642.856 210.275 644.188 210.275 646.024C210.275 647.836 211.475 649.144 213.203 649.144ZM211.355 645.436C211.535 644.452 212.219 643.792 213.107 643.792C213.971 643.792 214.763 644.38 214.955 645.436H211.355ZM216.326 643.936H217.31V647.608C217.31 648.532 217.97 649.144 218.942 649.144C219.17 649.144 219.422 649.108 219.614 649.048L219.59 648.088C219.446 648.136 219.254 648.16 219.086 648.16C218.594 648.16 218.27 647.86 218.27 647.416V643.936H219.59V643H218.27V641.464H217.358V642.256C217.358 642.688 217.082 643 216.71 643H216.326V643.936ZM221.289 646.936L220.233 647.224C220.317 648.34 221.397 649.144 222.825 649.144C224.193 649.144 225.129 648.424 225.129 647.368C225.129 645.268 221.553 645.832 221.553 644.536C221.553 644.056 222.057 643.744 222.657 643.744C223.353 643.744 223.905 644.164 223.929 644.752L224.937 644.488C224.805 643.54 223.893 642.856 222.657 642.856C221.469 642.856 220.521 643.432 220.521 644.488C220.521 646.588 224.073 646 224.073 647.368C224.073 647.872 223.569 648.232 222.897 648.232C222.069 648.232 221.337 647.692 221.289 646.936Z" fill="black"/>
<line x1="178" y1="644.5" x2="186" y2="644.5" stroke="black"/>
<path d="M331.794 636.5H329C328.867 636.5 328.74 636.447 328.646 636.353C328.553 636.26 328.5 636.133 328.5 636V633.206C328.5 633.141 328.512 633.077 328.537 633.017C328.562 632.957 328.598 632.902 328.644 632.856L336.144 625.356C336.19 625.309 336.246 625.271 336.307 625.246C336.368 625.22 336.434 625.207 336.5 625.207C336.566 625.207 336.632 625.22 336.693 625.246C336.754 625.271 336.81 625.309 336.856 625.356L339.644 628.144C339.691 628.19 339.729 628.246 339.754 628.307C339.78 628.368 339.793 628.434 339.793 628.5C339.793 628.566 339.78 628.632 339.754 628.693C339.729 628.754 339.691 628.81 339.644 628.856L332.144 636.356C332.098 636.402 332.043 636.438 331.983 636.463C331.923 636.488 331.859 636.5 331.794 636.5V636.5Z" stroke="black" stroke-linecap="round" stroke-linejoin="round"/>
<path d="M334.5 627L338 630.5" stroke="black" stroke-linecap="round" stroke-linejoin="round"/>
<circle cx="334" cy="631" r="15.5" stroke="black"/>
</g>
<g filter="url(#filter6_d_1825_6420)">
<rect x="62" y="691" width="304" height="88" rx="16" fill="white"/>
<rect x="78.5" y="707.5" width="39" height="55" rx="7.5" stroke="black"/>
<path d="M131.088 729H135.248C138.08 729 140.048 726.728 140.048 723.784C140.048 720.68 137.856 718.6 134.992 718.6H131.088V729ZM132.432 727.688V719.88H134.928C137.088 719.88 138.64 721.528 138.64 723.816C138.64 726.056 137.168 727.688 135.12 727.688H132.432ZM141.713 729H146.577C148.305 729 149.649 727.768 149.649 726.184C149.649 725 148.881 723.992 147.665 723.592C148.657 723.16 149.265 722.28 149.265 721.256C149.265 719.736 147.937 718.6 146.161 718.6H141.713V729ZM143.057 727.688V724.328H146.385C147.473 724.328 148.273 725.032 148.273 726.008C148.273 726.984 147.473 727.688 146.385 727.688H143.057ZM143.057 723.048V719.88H146.129C147.169 719.88 147.921 720.552 147.921 721.464C147.921 722.376 147.169 723.048 146.129 723.048H143.057ZM154.822 729H159.686C161.414 729 162.758 727.768 162.758 726.184C162.758 725 161.99 723.992 160.774 723.592C161.766 723.16 162.374 722.28 162.374 721.256C162.374 719.736 161.046 718.6 159.27 718.6H154.822V729ZM156.166 727.688V724.328H159.494C160.582 724.328 161.382 725.032 161.382 726.008C161.382 726.984 160.582 727.688 159.494 727.688H156.166ZM156.166 723.048V719.88H159.238C160.278 719.88 161.03 720.552 161.03 721.464C161.03 722.376 160.278 723.048 159.238 723.048H156.166ZM164.448 721V729H165.728V721H164.448ZM164.096 718.952C164.096 719.544 164.512 719.976 165.088 719.976C165.664 719.976 166.08 719.544 166.08 718.952C166.08 718.36 165.664 717.928 165.088 717.928C164.512 717.928 164.096 718.36 164.096 718.952ZM174.972 726.248L173.5 725.8C173.404 727.08 172.444 727.912 171.228 727.912C169.82 727.912 168.732 726.76 168.732 725C168.732 723.272 169.82 722.056 171.228 722.056C172.396 722.056 173.308 722.92 173.436 724.072L174.844 723.624C174.524 721.992 173.036 720.808 171.228 720.808C169.052 720.808 167.356 722.536 167.356 725C167.356 727.512 169.1 729.192 171.292 729.192C173.148 729.192 174.684 727.976 174.972 726.248ZM179.775 729.192C181.567 729.192 183.071 728.168 183.423 726.76L181.983 726.312C181.791 727.24 180.831 727.912 179.775 727.912C178.463 727.912 177.471 726.92 177.279 725.496H183.471C183.487 725.368 183.487 725.288 183.487 725.224C183.487 722.664 182.015 720.808 179.711 720.808C177.471 720.808 175.871 722.584 175.871 725.032C175.871 727.448 177.471 729.192 179.775 729.192ZM177.311 724.248C177.551 722.936 178.463 722.056 179.647 722.056C180.799 722.056 181.855 722.84 182.111 724.248H177.311ZM189.056 729.192C191.12 729.192 192.864 727.48 192.864 724.968C192.864 722.536 191.2 720.808 189.056 720.808C187.808 720.808 186.816 721.384 186.208 722.344L186.048 721H184.96V732.2H186.24V727.656C186.864 728.616 187.856 729.192 189.056 729.192ZM186.208 725C186.208 723.288 187.328 722.056 188.864 722.056C190.4 722.056 191.52 723.288 191.52 725C191.52 726.696 190.4 727.912 188.864 727.912C187.328 727.912 186.208 726.696 186.208 725ZM207.067 725.416L205.563 724.968C205.371 726.696 204.139 727.848 202.491 727.848C200.411 727.848 198.907 726.152 198.907 723.8C198.907 721.432 200.379 719.72 202.395 719.72C203.915 719.72 205.211 720.872 205.467 722.472L206.939 721.96C206.555 719.896 204.651 718.408 202.395 718.408C199.531 718.408 197.467 720.68 197.467 723.8C197.467 726.92 199.579 729.192 202.491 729.192C204.859 729.192 206.683 727.688 207.067 725.416ZM215.417 729L215.385 727.4V721H214.105V725.384C214.105 726.904 213.001 727.88 211.737 727.88C210.537 727.88 209.753 726.984 209.753 725.768V721H208.473V725.896C208.473 727.8 209.769 729.192 211.545 729.192C212.761 729.192 213.785 728.568 214.137 727.64L214.297 729H215.417ZM217.304 729H218.584V724.392C218.584 723.144 219.384 722.248 220.504 722.248C220.76 722.248 221.144 722.312 221.464 722.504L221.528 721C221.256 720.888 220.952 720.808 220.632 720.808C219.704 720.808 218.936 721.4 218.552 722.328L218.392 721H217.304V729ZM222.807 718.12V729H224.087V718.12H222.807ZM226.964 726.248L225.556 726.632C225.668 728.12 227.108 729.192 229.012 729.192C230.836 729.192 232.084 728.232 232.084 726.824C232.084 724.024 227.316 724.776 227.316 723.048C227.316 722.408 227.988 721.992 228.788 721.992C229.716 721.992 230.452 722.552 230.484 723.336L231.828 722.984C231.652 721.72 230.436 720.808 228.788 720.808C227.204 720.808 225.94 721.576 225.94 722.984C225.94 725.784 230.676 725 230.676 726.824C230.676 727.496 230.004 727.976 229.108 727.976C228.004 727.976 227.028 727.256 226.964 726.248Z" fill="black"/>
<path d="M131.68 753H132.688V745.2H131.728V745.728C131.704 746.424 131.236 746.928 130.624 746.928H130.096V747.84H131.68V753ZM137.296 753.144C139.216 753.144 140.608 751.44 140.608 749.1C140.608 746.76 139.216 745.056 137.296 745.056C135.376 745.056 133.984 746.76 133.984 749.1C133.984 751.44 135.376 753.144 137.296 753.144ZM135.04 749.088C135.04 747.324 135.988 746.04 137.296 746.04C138.604 746.04 139.552 747.324 139.552 749.088C139.552 750.852 138.604 752.136 137.296 752.136C135.988 752.136 135.04 750.852 135.04 749.088ZM144.539 753H145.547V749.868H147.851L149.411 753H150.587L148.907 749.748C149.831 749.448 150.443 748.608 150.443 747.54C150.443 746.184 149.471 745.2 148.115 745.2H144.539V753ZM145.547 748.932V746.16H148.067C148.835 746.16 149.387 746.748 149.387 747.552C149.387 748.356 148.811 748.932 148.019 748.932H145.547ZM154.148 753.144C155.492 753.144 156.62 752.376 156.884 751.32L155.804 750.984C155.66 751.68 154.94 752.184 154.148 752.184C153.164 752.184 152.42 751.44 152.276 750.372H156.92C156.932 750.276 156.932 750.216 156.932 750.168C156.932 748.248 155.828 746.856 154.1 746.856C152.42 746.856 151.22 748.188 151.22 750.024C151.22 751.836 152.42 753.144 154.148 753.144ZM152.3 749.436C152.48 748.452 153.164 747.792 154.052 747.792C154.916 747.792 155.708 748.38 155.9 749.436H152.3ZM161.108 753.144C162.656 753.144 163.964 751.86 163.964 749.976C163.964 748.152 162.716 746.856 161.108 746.856C160.172 746.856 159.428 747.288 158.972 748.008L158.852 747H158.036V755.4H158.996V751.992C159.464 752.712 160.208 753.144 161.108 753.144ZM158.972 750C158.972 748.716 159.812 747.792 160.964 747.792C162.116 747.792 162.956 748.716 162.956 750C162.956 751.272 162.116 752.184 160.964 752.184C159.812 752.184 158.972 751.272 158.972 750ZM165.692 750.936L164.636 751.224C164.72 752.34 165.8 753.144 167.228 753.144C168.596 753.144 169.532 752.424 169.532 751.368C169.532 749.268 165.956 749.832 165.956 748.536C165.956 748.056 166.46 747.744 167.06 747.744C167.756 747.744 168.308 748.164 168.332 748.752L169.34 748.488C169.208 747.54 168.296 746.856 167.06 746.856C165.872 746.856 164.924 747.432 164.924 748.488C164.924 750.588 168.476 750 168.476 751.368C168.476 751.872 167.972 752.232 167.3 752.232C166.472 752.232 165.74 751.692 165.692 750.936Z" fill="black"/>
<path d="M197.168 753.144C198.74 753.144 199.904 752.04 199.904 750.504C199.904 749.112 198.992 748.104 197.648 748.008L199.664 746.184V745.2H194.816V746.16H198.416L196.112 748.248L196.736 748.968C196.88 748.896 197.072 748.872 197.216 748.872C198.08 748.872 198.848 749.496 198.848 750.504C198.848 751.428 198.152 752.136 197.192 752.136C196.208 752.136 195.512 751.44 195.512 750.456V749.856H194.48V750.528C194.48 752.052 195.608 753.144 197.168 753.144ZM204.561 750.264L203.457 750.552C203.553 752.088 204.861 753.144 206.625 753.144C208.317 753.144 209.457 752.22 209.457 750.888C209.457 748.236 204.873 748.764 204.873 747.096C204.873 746.448 205.593 746.016 206.409 746.016C207.369 746.016 207.969 746.64 208.065 747.456L209.169 747.144C209.025 745.896 207.897 745.056 206.409 745.056C204.945 745.056 203.793 745.872 203.793 747.144C203.793 749.676 208.353 749.028 208.353 750.888C208.353 751.632 207.609 752.16 206.649 752.16C205.461 752.16 204.609 751.368 204.561 750.264ZM213.203 753.144C214.547 753.144 215.675 752.376 215.939 751.32L214.859 750.984C214.715 751.68 213.995 752.184 213.203 752.184C212.219 752.184 211.475 751.44 211.331 750.372H215.975C215.987 750.276 215.987 750.216 215.987 750.168C215.987 748.248 214.883 746.856 213.155 746.856C211.475 746.856 210.275 748.188 210.275 750.024C210.275 751.836 211.475 753.144 213.203 753.144ZM211.355 749.436C211.535 748.452 212.219 747.792 213.107 747.792C213.971 747.792 214.763 748.38 214.955 749.436H211.355ZM216.326 747.936H217.31V751.608C217.31 752.532 217.97 753.144 218.942 753.144C219.17 753.144 219.422 753.108 219.614 753.048L219.59 752.088C219.446 752.136 219.254 752.16 219.086 752.16C218.594 752.16 218.27 751.86 218.27 751.416V747.936H219.59V747H218.27V745.464H217.358V746.256C217.358 746.688 217.082 747 216.71 747H216.326V747.936ZM221.289 750.936L220.233 751.224C220.317 752.34 221.397 753.144 222.825 753.144C224.193 753.144 225.129 752.424 225.129 751.368C225.129 749.268 221.553 749.832 221.553 748.536C221.553 748.056 222.057 747.744 222.657 747.744C223.353 747.744 223.905 748.164 223.929 748.752L224.937 748.488C224.805 747.54 223.893 746.856 222.657 746.856C221.469 746.856 220.521 747.432 220.521 748.488C220.521 750.588 224.073 750 224.073 751.368C224.073 751.872 223.569 752.232 222.897 752.232C222.069 752.232 221.337 751.692 221.289 750.936Z" fill="black"/>
<line x1="178" y1="748.5" x2="186" y2="748.5" stroke="black"/>
<path d="M331.794 740.5H329C328.867 740.5 328.74 740.447 328.646 740.353C328.553 740.26 328.5 740.133 328.5 740V737.206C328.5 737.141 328.512 737.077 328.537 737.017C328.562 736.957 328.598 736.902 328.644 736.856L336.144 729.356C336.19 729.309 336.246 729.271 336.307 729.246C336.368 729.22 336.434 729.207 336.5 729.207C336.566 729.207 336.632 729.22 336.693 729.246C336.754 729.271 336.81 729.309 336.856 729.356L339.644 732.144C339.691 732.19 339.729 732.246 339.754 732.307C339.78 732.368 339.793 732.434 339.793 732.5C339.793 732.566 339.78 732.632 339.754 732.693C339.729 732.754 339.691 732.81 339.644 732.856L332.144 740.356C332.098 740.402 332.043 740.438 331.983 740.463C331.923 740.488 331.859 740.5 331.794 740.5V740.5Z" stroke="black" stroke-linecap="round" stroke-linejoin="round"/>
<path d="M334.5 731L338 734.5" stroke="black" stroke-linecap="round" stroke-linejoin="round"/>
<circle cx="334" cy="735" r="15.5" stroke="black"/>
</g>
</g>
<path d="M158.04 81V94H161V88.56H166.12V94H169.08V81H166.12V86.16H161V81H158.04ZM175.685 94.24C178.625 94.24 180.765 92.04 180.765 89C180.765 85.96 178.625 83.76 175.685 83.76C172.745 83.76 170.605 85.96 170.605 89C170.605 92.04 172.745 94.24 175.685 94.24ZM173.485 88.98C173.485 87.48 174.405 86.4 175.685 86.4C176.965 86.4 177.885 87.48 177.885 88.98C177.885 90.48 176.965 91.56 175.685 91.56C174.405 91.56 173.485 90.48 173.485 88.98ZM193.958 88.28V94H196.758V87.68C196.758 85.38 195.378 83.76 193.438 83.76C192.158 83.76 190.958 84.46 190.438 85.56C189.898 84.42 188.918 83.76 187.678 83.76C186.418 83.76 185.318 84.44 184.898 85.4L184.358 84H182.198V94H184.998V88.68C184.998 87.4 185.718 86.48 186.718 86.48C187.598 86.48 188.158 87.22 188.158 88.36V94H190.918V88.68C190.918 87.38 191.598 86.48 192.558 86.48C193.398 86.48 193.958 87.2 193.958 88.28ZM203.125 94.24C205.285 94.24 207.125 93.04 207.765 91.36L204.965 90.48C204.745 91.16 203.985 91.64 203.165 91.64C202.085 91.64 201.245 90.84 201.025 89.64H207.885C207.905 89.48 207.925 89.28 207.925 89C207.925 85.96 205.885 83.76 203.085 83.76C200.205 83.76 198.125 85.96 198.125 89C198.125 92.04 200.225 94.24 203.125 94.24ZM201.085 88.04C201.365 87.04 202.105 86.36 203.065 86.36C204.025 86.36 204.805 87.08 205.005 88.04H201.085ZM213.09 81L214.45 94H218.17L220.21 84L222.29 94H225.85L227.29 81H224.25L223.33 90.56L221.45 81.04H219.01L217.13 90.56L216.21 81H213.09ZM233.185 94.24C236.125 94.24 238.265 92.04 238.265 89C238.265 85.96 236.125 83.76 233.185 83.76C230.245 83.76 228.105 85.96 228.105 89C228.105 92.04 230.245 94.24 233.185 94.24ZM230.985 88.98C230.985 87.48 231.905 86.4 233.185 86.4C234.465 86.4 235.385 87.48 235.385 88.98C235.385 90.48 234.465 91.56 233.185 91.56C231.905 91.56 230.985 90.48 230.985 88.98ZM239.698 94H242.498V88.96C242.498 87.72 243.358 86.88 244.578 86.88C244.878 86.88 245.198 86.92 245.378 87L245.858 84C245.538 83.84 245.198 83.76 244.818 83.76C243.738 83.76 242.898 84.38 242.398 85.44L241.858 84H239.698V94ZM247.063 80.4V94H249.863V91.16L250.943 89.98L253.383 94H256.823L252.803 87.96L256.423 84H252.823L249.863 87.6V80.4H247.063ZM261.994 94.24C264.934 94.24 267.074 92.04 267.074 89C267.074 85.96 264.934 83.76 261.994 83.76C259.054 83.76 256.914 85.96 256.914 89C256.914 92.04 259.054 94.24 261.994 94.24ZM259.794 88.98C259.794 87.48 260.714 86.4 261.994 86.4C263.274 86.4 264.194 87.48 264.194 88.98C264.194 90.48 263.274 91.56 261.994 91.56C260.714 91.56 259.794 90.48 259.794 88.98ZM277.627 94L277.587 92V84H274.787V89.2C274.787 90.52 273.987 91.48 272.907 91.48C271.927 91.48 271.227 90.68 271.227 89.52V84H268.427V90.16C268.427 92.52 269.927 94.24 271.947 94.24C273.207 94.24 274.347 93.56 274.867 92.54L275.427 94H277.627ZM278.625 86.48H280.065V90.96C280.065 92.88 281.505 94.24 283.465 94.24C284.425 94.24 285.025 94.12 285.425 94L284.945 91.44C284.625 91.54 284.425 91.56 284.225 91.56C283.425 91.56 282.865 91.16 282.865 90.2V86.48H285.105V84H282.865V81.2H280.225V82.96C280.225 83.56 279.825 84 279.265 84H278.625V86.48Z" fill="black"/>
<circle cx="99" cy="87" r="24" fill="black"/>
<path d="M91.2227 94.7783L106.779 79.222" stroke="white" stroke-width="2" stroke-linecap="round" stroke-linejoin="round"/>
<path d="M91.2227 79.2217L106.779 94.778" stroke="white" stroke-width="2" stroke-linecap="round" stroke-linejoin="round"/>
<g filter="url(#filter7_d_1825_6420)">
<rect x="90" y="747" width="248" height="56" rx="24" fill="white"/>
<rect x="90.5" y="747.5" width="247" height="55" rx="23.5" stroke="black"/>
</g>
<rect x="91" y="748" width="82" height="54" rx="23" fill="#5D47BF"/>
<path d="M296.224 780.192C298.32 780.192 299.872 778.72 299.872 776.672C299.872 774.816 298.656 773.472 296.864 773.344L299.552 770.912V769.6H293.088V770.88H297.888L294.816 773.664L295.648 774.624C295.84 774.528 296.096 774.496 296.288 774.496C297.44 774.496 298.464 775.328 298.464 776.672C298.464 777.904 297.536 778.848 296.256 778.848C294.944 778.848 294.016 777.92 294.016 776.608V775.808H292.64V776.704C292.64 778.736 294.144 780.192 296.224 780.192ZM304.677 780.192C306.773 780.192 308.325 778.72 308.325 776.672C308.325 774.816 307.109 773.472 305.317 773.344L308.005 770.912V769.6H301.541V770.88H306.341L303.269 773.664L304.101 774.624C304.293 774.528 304.549 774.496 304.741 774.496C305.893 774.496 306.917 775.328 306.917 776.672C306.917 777.904 305.989 778.848 304.709 778.848C303.397 778.848 302.469 777.92 302.469 776.608V775.808H301.093V776.704C301.093 778.736 302.597 780.192 304.677 780.192ZM318.41 769.408L310.826 779.456L311.722 780.192L319.274 770.112L318.41 769.408ZM309.29 772.096C309.29 773.584 310.346 774.656 311.786 774.656C313.226 774.656 314.282 773.584 314.282 772.096C314.282 770.608 313.226 769.536 311.786 769.536C310.346 769.536 309.29 770.608 309.29 772.096ZM310.41 772.08C310.41 771.216 310.986 770.592 311.786 770.592C312.586 770.592 313.162 771.216 313.162 772.08C313.162 772.944 312.586 773.568 311.786 773.568C310.986 773.568 310.41 772.944 310.41 772.08ZM315.946 777.504C315.946 778.992 317.002 780.064 318.442 780.064C319.882 780.064 320.938 778.992 320.938 777.504C320.938 776.016 319.882 774.944 318.442 774.944C317.002 774.944 315.946 776.016 315.946 777.504ZM317.066 777.488C317.066 776.624 317.642 776 318.442 776C319.242 776 319.818 776.624 319.818 777.488C319.818 778.352 319.242 778.976 318.442 778.976C317.642 778.976 317.066 778.352 317.066 777.488Z" fill="black"/>
</g>
</g>
<defs>
<filter id="filter0_dd_1825_6420" x="-1" y="-2" width="429" height="866" filterUnits="userSpaceOnUse" color-interpolation-filters="sRGB">
<feFlood flood-opacity="0" result="BackgroundImageFix"/>
<feColorMatrix in="SourceAlpha" type="matrix" values="0 0 0 0 0 0 0 0 0 0 0 0 0 0 0 0 0 0 127 0" result="hardAlpha"/>
<feOffset/>
<feGaussianBlur stdDeviation="1"/>
<feColorMatrix type="matrix" values="0 0 0 0 0 0 0 0 0 0.0823529 0 0 0 0 0.25098 0 0 0 0.14 0"/>
<feBlend mode="normal" in2="BackgroundImageFix" result="effect1_dropShadow_1825_6420"/>
<feColorMatrix in="SourceAlpha" type="matrix" values="0 0 0 0 0 0 0 0 0 0 0 0 0 0 0 0 0 0 127 0" result="hardAlpha"/>
<feOffset dy="2"/>
<feGaussianBlur stdDeviation="2"/>
<feColorMatrix type="matrix" values="0 0 0 0 0 0 0 0 0 0.0823529 0 0 0 0 0.25098 0 0 0 0.05 0"/>
<feBlend mode="normal" in2="effect1_dropShadow_1825_6420" result="effect2_dropShadow_1825_6420"/>
<feBlend mode="normal" in="SourceGraphic" in2="effect2_dropShadow_1825_6420" result="shape"/>
</filter>
<filter id="filter1_d_1825_6420" x="58" y="169" width="312" height="96" filterUnits="userSpaceOnUse" color-interpolation-filters="sRGB">
<feFlood flood-opacity="0" result="BackgroundImageFix"/>
<feColorMatrix in="SourceAlpha" type="matrix" values="0 0 0 0 0 0 0 0 0 0 0 0 0 0 0 0 0 0 127 0" result="hardAlpha"/>
<feOffset dy="2"/>
<feGaussianBlur stdDeviation="2"/>
<feComposite in2="hardAlpha" operator="out"/>
<feColorMatrix type="matrix" values="0 0 0 0 0 0 0 0 0 0 0 0 0 0 0 0 0 0 0.25 0"/>
<feBlend mode="normal" in2="BackgroundImageFix" result="effect1_dropShadow_1825_6420"/>
<feBlend mode="normal" in="SourceGraphic" in2="effect1_dropShadow_1825_6420" result="shape"/>
</filter>
<filter id="filter2_d_1825_6420" x="59" y="273" width="312" height="96" filterUnits="userSpaceOnUse" color-interpolation-filters="sRGB">
<feFlood flood-opacity="0" result="BackgroundImageFix"/>
<feColorMatrix in="SourceAlpha" type="matrix" values="0 0 0 0 0 0 0 0 0 0 0 0 0 0 0 0 0 0 127 0" result="hardAlpha"/>
<feOffset dy="2"/>
<feGaussianBlur stdDeviation="2"/>
<feComposite in2="hardAlpha" operator="out"/>
<feColorMatrix type="matrix" values="0 0 0 0 0 0 0 0 0 0 0 0 0 0 0 0 0 0 0.25 0"/>
<feBlend mode="normal" in2="BackgroundImageFix" result="effect1_dropShadow_1825_6420"/>
<feBlend mode="normal" in="SourceGraphic" in2="effect1_dropShadow_1825_6420" result="shape"/>
</filter>
<filter id="filter3_d_1825_6420" x="59" y="377" width="312" height="96" filterUnits="userSpaceOnUse" color-interpolation-filters="sRGB">
<feFlood flood-opacity="0" result="BackgroundImageFix"/>
<feColorMatrix in="SourceAlpha" type="matrix" values="0 0 0 0 0 0 0 0 0 0 0 0 0 0 0 0 0 0 127 0" result="hardAlpha"/>
<feOffset dy="2"/>
<feGaussianBlur stdDeviation="2"/>
<feComposite in2="hardAlpha" operator="out"/>
<feColorMatrix type="matrix" values="0 0 0 0 0 0 0 0 0 0 0 0 0 0 0 0 0 0 0.25 0"/>
<feBlend mode="normal" in2="BackgroundImageFix" result="effect1_dropShadow_1825_6420"/>
<feBlend mode="normal" in="SourceGraphic" in2="effect1_dropShadow_1825_6420" result="shape"/>
</filter>
<filter id="filter4_d_1825_6420" x="58" y="481" width="312" height="96" filterUnits="userSpaceOnUse" color-interpolation-filters="sRGB">
<feFlood flood-opacity="0" result="BackgroundImageFix"/>
<feColorMatrix in="SourceAlpha" type="matrix" values="0 0 0 0 0 0 0 0 0 0 0 0 0 0 0 0 0 0 127 0" result="hardAlpha"/>
<feOffset dy="2"/>
<feGaussianBlur stdDeviation="2"/>
<feComposite in2="hardAlpha" operator="out"/>
<feColorMatrix type="matrix" values="0 0 0 0 0 0 0 0 0 0 0 0 0 0 0 0 0 0 0.25 0"/>
<feBlend mode="normal" in2="BackgroundImageFix" result="effect1_dropShadow_1825_6420"/>
<feBlend mode="normal" in="SourceGraphic" in2="effect1_dropShadow_1825_6420" result="shape"/>
</filter>
<filter id="filter5_d_1825_6420" x="58" y="585" width="312" height="96" filterUnits="userSpaceOnUse" color-interpolation-filters="sRGB">
<feFlood flood-opacity="0" result="BackgroundImageFix"/>
<feColorMatrix in="SourceAlpha" type="matrix" values="0 0 0 0 0 0 0 0 0 0 0 0 0 0 0 0 0 0 127 0" result="hardAlpha"/>
<feOffset dy="2"/>
<feGaussianBlur stdDeviation="2"/>
<feComposite in2="hardAlpha" operator="out"/>
<feColorMatrix type="matrix" values="0 0 0 0 0 0 0 0 0 0 0 0 0 0 0 0 0 0 0.25 0"/>
<feBlend mode="normal" in2="BackgroundImageFix" result="effect1_dropShadow_1825_6420"/>
<feBlend mode="normal" in="SourceGraphic" in2="effect1_dropShadow_1825_6420" result="shape"/>
</filter>
<filter id="filter6_d_1825_6420" x="58" y="689" width="312" height="96" filterUnits="userSpaceOnUse" color-interpolation-filters="sRGB">
<feFlood flood-opacity="0" result="BackgroundImageFix"/>
<feColorMatrix in="SourceAlpha" type="matrix" values="0 0 0 0 0 0 0 0 0 0 0 0 0 0 0 0 0 0 127 0" result="hardAlpha"/>
<feOffset dy="2"/>
<feGaussianBlur stdDeviation="2"/>
<feComposite in2="hardAlpha" operator="out"/>
<feColorMatrix type="matrix" values="0 0 0 0 0 0 0 0 0 0 0 0 0 0 0 0 0 0 0.25 0"/>
<feBlend mode="normal" in2="BackgroundImageFix" result="effect1_dropShadow_1825_6420"/>
<feBlend mode="normal" in="SourceGraphic" in2="effect1_dropShadow_1825_6420" result="shape"/>
</filter>
<filter id="filter7_d_1825_6420" x="86" y="747" width="256" height="64" filterUnits="userSpaceOnUse" color-interpolation-filters="sRGB">
<feFlood flood-opacity="0" result="BackgroundImageFix"/>
<feColorMatrix in="SourceAlpha" type="matrix" values="0 0 0 0 0 0 0 0 0 0 0 0 0 0 0 0 0 0 127 0" result="hardAlpha"/>
<feOffset dy="4"/>
<feGaussianBlur stdDeviation="2"/>
<feComposite in2="hardAlpha" operator="out"/>
<feColorMatrix type="matrix" values="0 0 0 0 0 0 0 0 0 0 0 0 0 0 0 0 0 0 0.25 0"/>
<feBlend mode="normal" in2="BackgroundImageFix" result="effect1_dropShadow_1825_6420"/>
<feBlend mode="normal" in="SourceGraphic" in2="effect1_dropShadow_1825_6420" result="shape"/>
</filter>
<clipPath id="clip0_1825_6420">
<rect width="427" height="858" fill="white"/>
</clipPath>
<clipPath id="clip1_1825_6420">
<rect width="305" height="652" fill="white" transform="translate(62 171)"/>
</clipPath>
</defs>
</svg>
