<svg width="428" height="543" viewBox="0 0 428 543" fill="none" xmlns="http://www.w3.org/2000/svg">
<g filter="url(#filter0_d_1772_315)">
<rect x="4.5" y="34.5" width="387" height="500" rx="15.5" fill="#ECECEC" stroke="black"/>
<path d="M97.1448 122H105.465C111.129 122 115.065 117.456 115.065 111.568C115.065 105.36 110.681 101.2 104.953 101.2H97.1448V122ZM99.8328 119.376V103.76H104.825C109.145 103.76 112.249 107.056 112.249 111.632C112.249 116.112 109.305 119.376 105.209 119.376H99.8328ZM125.243 122.384C129.883 122.384 133.243 118.864 133.243 114C133.243 109.136 129.883 105.616 125.243 105.616C120.603 105.616 117.243 109.136 117.243 114C117.243 118.864 120.603 122.384 125.243 122.384ZM119.931 114C119.931 110.576 122.171 108.112 125.243 108.112C128.315 108.112 130.555 110.576 130.555 114C130.555 117.392 128.315 119.824 125.243 119.824C122.171 119.824 119.931 117.392 119.931 114ZM147.657 112.464V122H150.217V112.272C150.217 108.4 147.625 105.616 144.009 105.616C141.449 105.616 139.561 106.96 138.729 108.944L138.377 106H136.201V122H138.761V113.424C138.761 110.384 140.969 108.176 143.625 108.176C146.025 108.176 147.657 109.968 147.657 112.464ZM153.347 107.92C155.395 107.92 156.867 106.096 156.867 103.888C156.867 102.096 155.843 100.944 154.563 100.944C153.443 100.944 152.643 101.808 152.643 103.056C152.643 104.336 153.635 105.168 155.075 105.04C155.075 105.936 154.307 106.512 153.283 106.512C153.091 106.512 152.899 106.48 152.771 106.448L152.707 107.856C152.867 107.888 153.123 107.92 153.347 107.92ZM158.287 108.496H160.911V118.288C160.911 120.752 162.671 122.384 165.263 122.384C165.871 122.384 166.543 122.288 167.055 122.128L166.991 119.568C166.607 119.696 166.095 119.76 165.647 119.76C164.335 119.76 163.471 118.96 163.471 117.776V108.496H166.991V106H163.471V101.904H161.039V104.016C161.039 105.168 160.303 106 159.311 106H158.287V108.496ZM179.769 124.304V106H177.209V123.792C177.209 125.008 176.281 125.968 175.033 126.096L175.865 128.912C178.137 128.656 179.769 126.736 179.769 124.304ZM176.505 101.904C176.505 103.088 177.337 103.952 178.489 103.952C179.641 103.952 180.473 103.088 180.473 101.904C180.473 100.72 179.641 99.856 178.489 99.856C177.337 99.856 176.505 100.72 176.505 101.904ZM197.552 122L197.488 118.8V106H194.928V114.768C194.928 117.808 192.72 119.76 190.192 119.76C187.792 119.76 186.224 117.968 186.224 115.536V106H183.664V115.792C183.664 119.6 186.256 122.384 189.808 122.384C192.24 122.384 194.288 121.136 194.992 119.28L195.312 122H197.552ZM202.99 116.496L200.174 117.264C200.398 120.24 203.278 122.384 207.086 122.384C210.734 122.384 213.23 120.464 213.23 117.648C213.23 112.048 203.694 113.552 203.694 110.096C203.694 108.816 205.038 107.984 206.638 107.984C208.494 107.984 209.966 109.104 210.03 110.672L212.718 109.968C212.366 107.44 209.934 105.616 206.638 105.616C203.47 105.616 200.942 107.152 200.942 109.968C200.942 115.568 210.414 114 210.414 117.648C210.414 118.992 209.07 119.952 207.278 119.952C205.07 119.952 203.118 118.512 202.99 116.496ZM214.256 108.496H216.88V118.288C216.88 120.752 218.64 122.384 221.232 122.384C221.84 122.384 222.512 122.288 223.024 122.128L222.96 119.568C222.576 119.696 222.064 119.76 221.616 119.76C220.304 119.76 219.44 118.96 219.44 117.776V108.496H222.96V106H219.44V101.904H217.008V104.016C217.008 105.168 216.272 106 215.28 106H214.256V108.496ZM234.522 116.496L231.706 117.264C231.93 120.24 234.81 122.384 238.618 122.384C242.266 122.384 244.762 120.464 244.762 117.648C244.762 112.048 235.226 113.552 235.226 110.096C235.226 108.816 236.57 107.984 238.17 107.984C240.026 107.984 241.498 109.104 241.562 110.672L244.25 109.968C243.898 107.44 241.466 105.616 238.17 105.616C235.002 105.616 232.474 107.152 232.474 109.968C232.474 115.568 241.946 114 241.946 117.648C241.946 118.992 240.602 119.952 238.81 119.952C236.602 119.952 234.65 118.512 234.522 116.496ZM245.787 108.496H248.411V118.288C248.411 120.752 250.171 122.384 252.763 122.384C253.371 122.384 254.043 122.288 254.555 122.128L254.491 119.568C254.107 119.696 253.595 119.76 253.147 119.76C251.835 119.76 250.971 118.96 250.971 117.776V108.496H254.491V106H250.971V101.904H248.539V104.016C248.539 105.168 247.803 106 246.811 106H245.787V108.496ZM264.02 122.384C267.604 122.384 270.612 120.336 271.316 117.52L268.436 116.624C268.052 118.48 266.132 119.824 264.02 119.824C261.396 119.824 259.411 117.84 259.028 114.992H271.412C271.444 114.736 271.444 114.576 271.444 114.448C271.444 109.328 268.5 105.616 263.892 105.616C259.411 105.616 256.212 109.168 256.212 114.064C256.212 118.896 259.411 122.384 264.02 122.384ZM259.092 112.496C259.572 109.872 261.396 108.112 263.764 108.112C266.068 108.112 268.18 109.68 268.692 112.496H259.092ZM283.797 114.32V115.344C283.797 117.904 281.653 119.888 278.997 119.888C277.205 119.888 276.181 119.024 276.181 117.776C276.181 116.592 276.949 115.632 278.485 115.344L282.709 114.576C283.157 114.48 283.573 114.416 283.797 114.32ZM273.365 117.776C273.365 120.464 275.413 122.384 278.485 122.384C281.045 122.384 282.965 121.232 283.893 119.376L284.309 122H286.421L286.357 118.8V111.376C286.357 107.888 283.669 105.616 280.213 105.616C276.789 105.616 274.197 108.016 273.877 111.312L276.693 111.76C276.757 109.52 278.165 107.92 280.277 107.92C282.325 107.92 283.797 109.36 283.797 111.376V111.504C283.797 111.952 283.381 112.304 282.773 112.4L277.845 113.296C274.901 113.84 273.365 115.472 273.365 117.776ZM290.207 100.24V122H292.767V100.24H290.207ZM302.225 108.496H304.849V118.288C304.849 120.752 306.609 122.384 309.201 122.384C309.809 122.384 310.481 122.288 310.993 122.128L310.929 119.568C310.545 119.696 310.033 119.76 309.585 119.76C308.273 119.76 307.409 118.96 307.409 117.776V108.496H310.929V106H307.409V101.904H304.977V104.016C304.977 105.168 304.241 106 303.249 106H302.225V108.496ZM325.507 112.464V122H328.067V112.272C328.067 108.4 325.475 105.616 321.859 105.616C319.427 105.616 317.379 106.768 316.611 108.656V100.24H314.051V122H316.611V113.424C316.611 110.384 318.819 108.176 321.475 108.176C323.875 108.176 325.507 109.968 325.507 112.464ZM338.551 122.384C342.135 122.384 345.143 120.336 345.847 117.52L342.967 116.624C342.583 118.48 340.663 119.824 338.551 119.824C335.927 119.824 333.943 117.84 333.559 114.992H345.943C345.975 114.736 345.975 114.576 345.975 114.448C345.975 109.328 343.031 105.616 338.423 105.616C333.943 105.616 330.743 109.168 330.743 114.064C330.743 118.896 333.943 122.384 338.551 122.384ZM333.623 112.496C334.103 109.872 335.927 108.112 338.295 108.112C340.599 108.112 342.711 109.68 343.223 112.496H333.623ZM157.178 159.496L154.362 160.264C154.586 163.24 157.466 165.384 161.274 165.384C164.922 165.384 167.418 163.464 167.418 160.648C167.418 155.048 157.882 156.552 157.882 153.096C157.882 151.816 159.226 150.984 160.826 150.984C162.682 150.984 164.154 152.104 164.218 153.672L166.906 152.968C166.554 150.44 164.122 148.616 160.826 148.616C157.658 148.616 155.13 150.152 155.13 152.968C155.13 158.568 164.602 157 164.602 160.648C164.602 161.992 163.258 162.952 161.466 162.952C159.258 162.952 157.306 161.512 157.178 159.496ZM168.444 151.496H171.068V161.288C171.068 163.752 172.828 165.384 175.42 165.384C176.028 165.384 176.7 165.288 177.212 165.128L177.148 162.568C176.764 162.696 176.252 162.76 175.804 162.76C174.492 162.76 173.628 161.96 173.628 160.776V151.496H177.148V149H173.628V144.904H171.196V147.016C171.196 148.168 170.46 149 169.468 149H168.444V151.496ZM178.158 149L184.43 164.488L183.534 166.792C182.958 168.264 181.87 168.968 180.462 169.096L181.166 171.784C183.342 171.528 185.102 169.864 186.094 167.304L193.134 149H190.19L185.838 161.288L181.166 149H178.158ZM195.364 143.24V165H197.924V143.24H195.364ZM208.926 165.384C212.51 165.384 215.518 163.336 216.222 160.52L213.342 159.624C212.958 161.48 211.038 162.824 208.926 162.824C206.302 162.824 204.318 160.84 203.934 157.992H216.318C216.35 157.736 216.35 157.576 216.35 157.448C216.35 152.328 213.406 148.616 208.798 148.616C204.318 148.616 201.118 152.168 201.118 157.064C201.118 161.896 204.318 165.384 208.926 165.384ZM203.998 155.496C204.478 152.872 206.302 151.112 208.67 151.112C210.974 151.112 213.086 152.68 213.598 155.496H203.998ZM219.103 168.008C221.151 168.008 222.623 166.184 222.623 163.976C222.623 162.184 221.599 161.032 220.319 161.032C219.199 161.032 218.399 161.896 218.399 163.144C218.399 164.424 219.391 165.256 220.831 165.128C220.831 166.024 220.063 166.6 219.039 166.6C218.847 166.6 218.655 166.568 218.527 166.536L218.463 167.944C218.623 167.976 218.879 168.008 219.103 168.008ZM234.522 159.496L231.706 160.264C231.93 163.24 234.81 165.384 238.618 165.384C242.266 165.384 244.762 163.464 244.762 160.648C244.762 155.048 235.226 156.552 235.226 153.096C235.226 151.816 236.57 150.984 238.17 150.984C240.026 150.984 241.498 152.104 241.562 153.672L244.25 152.968C243.898 150.44 241.466 148.616 238.17 148.616C235.002 148.616 232.474 150.152 232.474 152.968C232.474 158.568 241.946 157 241.946 160.648C241.946 161.992 240.602 162.952 238.81 162.952C236.602 162.952 234.65 161.512 234.522 159.496ZM245.787 151.496H248.411V161.288C248.411 163.752 250.171 165.384 252.763 165.384C253.371 165.384 254.043 165.288 254.555 165.128L254.491 162.568C254.107 162.696 253.595 162.76 253.147 162.76C251.835 162.76 250.971 161.96 250.971 160.776V151.496H254.491V149H250.971V144.904H248.539V147.016C248.539 148.168 247.803 149 246.811 149H245.787V151.496ZM264.02 165.384C267.604 165.384 270.612 163.336 271.316 160.52L268.436 159.624C268.052 161.48 266.132 162.824 264.02 162.824C261.396 162.824 259.411 160.84 259.028 157.992H271.412C271.444 157.736 271.444 157.576 271.444 157.448C271.444 152.328 268.5 148.616 263.892 148.616C259.411 148.616 256.212 152.168 256.212 157.064C256.212 161.896 259.411 165.384 264.02 165.384ZM259.092 155.496C259.572 152.872 261.396 151.112 263.764 151.112C266.068 151.112 268.18 152.68 268.692 155.496H259.092ZM283.797 157.32V158.344C283.797 160.904 281.653 162.888 278.997 162.888C277.205 162.888 276.181 162.024 276.181 160.776C276.181 159.592 276.949 158.632 278.485 158.344L282.709 157.576C283.157 157.48 283.573 157.416 283.797 157.32ZM273.365 160.776C273.365 163.464 275.413 165.384 278.485 165.384C281.045 165.384 282.965 164.232 283.893 162.376L284.309 165H286.421L286.357 161.8V154.376C286.357 150.888 283.669 148.616 280.213 148.616C276.789 148.616 274.197 151.016 273.877 154.312L276.693 154.76C276.757 152.52 278.165 150.92 280.277 150.92C282.325 150.92 283.797 152.36 283.797 154.376V154.504C283.797 154.952 283.381 155.304 282.773 155.4L277.845 156.296C274.901 156.84 273.365 158.472 273.365 160.776ZM290.207 143.24V165H292.767V143.24H290.207ZM302.225 151.496H304.849V161.288C304.849 163.752 306.609 165.384 309.201 165.384C309.809 165.384 310.481 165.288 310.993 165.128L310.929 162.568C310.545 162.696 310.033 162.76 309.585 162.76C308.273 162.76 307.409 161.96 307.409 160.776V151.496H310.929V149H307.409V144.904H304.977V147.016C304.977 148.168 304.241 149 303.249 149H302.225V151.496ZM325.507 155.464V165H328.067V155.272C328.067 151.4 325.475 148.616 321.859 148.616C319.427 148.616 317.379 149.768 316.611 151.656V143.24H314.051V165H316.611V156.424C316.611 153.384 318.819 151.176 321.475 151.176C323.875 151.176 325.507 152.968 325.507 155.464ZM338.551 165.384C342.135 165.384 345.143 163.336 345.847 160.52L342.967 159.624C342.583 161.48 340.663 162.824 338.551 162.824C335.927 162.824 333.943 160.84 333.559 157.992H345.943C345.975 157.736 345.975 157.576 345.975 157.448C345.975 152.328 343.031 148.616 338.423 148.616C333.943 148.616 330.743 152.168 330.743 157.064C330.743 161.896 333.943 165.384 338.551 165.384ZM333.623 155.496C334.103 152.872 335.927 151.112 338.295 151.112C340.599 151.112 342.711 152.68 343.223 155.496H333.623ZM78.3498 194.496H80.9738V204.288C80.9738 206.752 82.7338 208.384 85.3258 208.384C85.9338 208.384 86.6058 208.288 87.1178 208.128L87.0538 205.568C86.6698 205.696 86.1578 205.76 85.7098 205.76C84.3978 205.76 83.5338 204.96 83.5338 203.776V194.496H87.0538V192H83.5338V187.904H81.1018V190.016C81.1018 191.168 80.3658 192 79.3738 192H78.3498V194.496ZM101.632 198.464V208H104.192V198.272C104.192 194.4 101.6 191.616 97.984 191.616C95.552 191.616 93.504 192.768 92.736 194.656V186.24H90.176V208H92.736V199.424C92.736 196.384 94.944 194.176 97.6 194.176C100 194.176 101.632 195.968 101.632 198.464ZM108.084 192V208H110.644V192H108.084ZM107.38 187.904C107.38 189.088 108.212 189.952 109.364 189.952C110.516 189.952 111.348 189.088 111.348 187.904C111.348 186.72 110.516 185.856 109.364 185.856C108.212 185.856 107.38 186.72 107.38 187.904ZM126.251 198.464V208H128.811V198.272C128.811 194.4 126.219 191.616 122.603 191.616C120.043 191.616 118.155 192.96 117.323 194.944L116.971 192H114.795V208H117.355V199.424C117.355 196.384 119.563 194.176 122.219 194.176C124.619 194.176 126.251 195.968 126.251 198.464ZM132.645 186.24V208H135.205V203.712L138.021 200.672L143.397 208H146.597L139.749 198.784L145.957 192H142.501L135.205 200.224V186.24H132.645ZM148.896 192V208H151.456V192H148.896ZM148.192 187.904C148.192 189.088 149.024 189.952 150.176 189.952C151.328 189.952 152.16 189.088 152.16 187.904C152.16 186.72 151.328 185.856 150.176 185.856C149.024 185.856 148.192 186.72 148.192 187.904ZM167.064 198.464V208H169.624V198.272C169.624 194.4 167.032 191.616 163.416 191.616C160.856 191.616 158.968 192.96 158.136 194.944L157.784 192H155.608V208H158.168V199.424C158.168 196.384 160.376 194.176 163.032 194.176C165.432 194.176 167.064 195.968 167.064 198.464ZM180.497 214.784C184.977 214.784 188.177 211.584 188.177 207.104V192H185.937L185.713 194.624C184.497 192.768 182.513 191.616 180.049 191.616C175.729 191.616 172.305 195.072 172.305 199.84C172.305 204.704 175.761 208 179.921 208C182.353 208 184.337 206.88 185.617 205.056V207.36C185.617 210.144 183.537 212.16 180.625 212.16C178.065 212.16 176.081 210.624 175.761 208.384L172.945 209.152C173.425 212.416 176.625 214.784 180.497 214.784ZM174.993 199.84C174.993 196.512 177.233 194.112 180.305 194.112C183.377 194.112 185.617 196.512 185.617 199.84C185.617 203.168 183.377 205.568 180.305 205.568C177.233 205.568 174.993 203.168 174.993 199.84ZM207.493 208.384C211.813 208.384 215.109 204.704 215.109 199.936C215.109 195.168 211.845 191.616 207.493 191.616C205.093 191.616 203.109 192.736 201.861 194.592V186.24H199.301V208H201.477L201.797 205.28C203.045 207.232 205.061 208.384 207.493 208.384ZM201.797 200C201.797 196.576 204.037 194.112 207.109 194.112C210.181 194.112 212.421 196.576 212.421 200C212.421 203.392 210.181 205.824 207.109 205.824C204.037 205.824 201.797 203.392 201.797 200ZM224.957 208.384C228.541 208.384 231.549 206.336 232.253 203.52L229.373 202.624C228.989 204.48 227.069 205.824 224.957 205.824C222.333 205.824 220.349 203.84 219.965 200.992H232.349C232.381 200.736 232.381 200.576 232.381 200.448C232.381 195.328 229.437 191.616 224.829 191.616C220.349 191.616 217.149 195.168 217.149 200.064C217.149 204.896 220.349 208.384 224.957 208.384ZM220.029 198.496C220.509 195.872 222.333 194.112 224.701 194.112C227.005 194.112 229.117 195.68 229.629 198.496H220.029ZM247.038 198.464V208H249.598V198.272C249.598 194.4 247.006 191.616 243.39 191.616C240.958 191.616 238.91 192.768 238.142 194.656V186.24H235.582V208H238.142V199.424C238.142 196.384 240.35 194.176 243.006 194.176C245.406 194.176 247.038 195.968 247.038 198.464ZM253.49 192V208H256.05V192H253.49ZM252.786 187.904C252.786 189.088 253.618 189.952 254.77 189.952C255.922 189.952 256.754 189.088 256.754 187.904C256.754 186.72 255.922 185.856 254.77 185.856C253.618 185.856 252.786 186.72 252.786 187.904ZM271.657 198.464V208H274.217V198.272C274.217 194.4 271.625 191.616 268.009 191.616C265.449 191.616 263.561 192.96 262.729 194.944L262.377 192H260.201V208H262.761V199.424C262.761 196.384 264.969 194.176 267.625 194.176C270.025 194.176 271.657 195.968 271.657 198.464ZM284.739 208.384C287.139 208.384 289.123 207.296 290.339 205.408L290.659 208H292.835L292.771 204.8V186.24H290.211V194.464C288.931 192.672 286.979 191.616 284.611 191.616C280.227 191.616 276.899 195.232 276.899 199.936C276.899 204.672 280.323 208.384 284.739 208.384ZM279.587 200C279.587 196.576 281.795 194.112 284.867 194.112C288.003 194.112 290.275 196.576 290.275 200C290.275 203.424 288.099 205.824 284.995 205.824C281.859 205.824 279.587 203.36 279.587 200ZM302.225 194.496H304.849V204.288C304.849 206.752 306.609 208.384 309.201 208.384C309.809 208.384 310.481 208.288 310.993 208.128L310.929 205.568C310.545 205.696 310.033 205.76 309.585 205.76C308.273 205.76 307.409 204.96 307.409 203.776V194.496H310.929V192H307.409V187.904H304.977V190.016C304.977 191.168 304.241 192 303.249 192H302.225V194.496ZM325.507 198.464V208H328.067V198.272C328.067 194.4 325.475 191.616 321.859 191.616C319.427 191.616 317.379 192.768 316.611 194.656V186.24H314.051V208H316.611V199.424C316.611 196.384 318.819 194.176 321.475 194.176C323.875 194.176 325.507 195.968 325.507 198.464ZM338.551 208.384C342.135 208.384 345.143 206.336 345.847 203.52L342.967 202.624C342.583 204.48 340.663 205.824 338.551 205.824C335.927 205.824 333.943 203.84 333.559 200.992H345.943C345.975 200.736 345.975 200.576 345.975 200.448C345.975 195.328 343.031 191.616 338.423 191.616C333.943 191.616 330.743 195.168 330.743 200.064C330.743 204.896 333.943 208.384 338.551 208.384ZM333.623 198.496C334.103 195.872 335.927 194.112 338.295 194.112C340.599 194.112 342.711 195.68 343.223 198.496H333.623ZM74.3965 245.496L71.5805 246.264C71.8045 249.24 74.6845 251.384 78.4925 251.384C82.1405 251.384 84.6365 249.464 84.6365 246.648C84.6365 241.048 75.1005 242.552 75.1005 239.096C75.1005 237.816 76.4445 236.984 78.0445 236.984C79.9005 236.984 81.3725 238.104 81.4365 239.672L84.1245 238.968C83.7725 236.44 81.3405 234.616 78.0445 234.616C74.8765 234.616 72.3485 236.152 72.3485 238.968C72.3485 244.568 81.8205 243 81.8205 246.648C81.8205 247.992 80.4765 248.952 78.6845 248.952C76.4765 248.952 74.5245 247.512 74.3965 245.496ZM85.6623 237.496H88.2863V247.288C88.2863 249.752 90.0463 251.384 92.6383 251.384C93.2463 251.384 93.9183 251.288 94.4303 251.128L94.3663 248.568C93.9823 248.696 93.4703 248.76 93.0223 248.76C91.7103 248.76 90.8463 247.96 90.8463 246.776V237.496H94.3663V235H90.8463V230.904H88.4143V233.016C88.4143 234.168 87.6783 235 86.6863 235H85.6623V237.496ZM95.3765 235L101.649 250.488L100.753 252.792C100.177 254.264 99.0885 254.968 97.6805 255.096L98.3845 257.784C100.561 257.528 102.321 255.864 103.312 253.304L110.353 235H107.409L103.057 247.288L98.3845 235H95.3765ZM112.582 229.24V251H115.142V229.24H112.582ZM126.145 251.384C129.729 251.384 132.737 249.336 133.441 246.52L130.561 245.624C130.177 247.48 128.257 248.824 126.145 248.824C123.521 248.824 121.536 246.84 121.153 243.992H133.537C133.569 243.736 133.569 243.576 133.569 243.448C133.569 238.328 130.625 234.616 126.017 234.616C121.536 234.616 118.337 238.168 118.337 243.064C118.337 247.896 121.536 251.384 126.145 251.384ZM121.217 241.496C121.697 238.872 123.521 237.112 125.889 237.112C128.193 237.112 130.305 238.68 130.817 241.496H121.217ZM137.666 251.256C138.85 251.256 139.714 250.36 139.714 249.144C139.714 247.928 138.85 247.032 137.666 247.032C136.482 247.032 135.618 247.928 135.618 249.144C135.618 250.36 136.482 251.256 137.666 251.256ZM148.095 230.2L155.711 245.112V251H158.399V245.112L165.503 230.2H162.431L157.087 241.912L151.231 230.2H148.095ZM172.805 251.384C177.445 251.384 180.805 247.864 180.805 243C180.805 238.136 177.445 234.616 172.805 234.616C168.165 234.616 164.805 238.136 164.805 243C164.805 247.864 168.165 251.384 172.805 251.384ZM167.493 243C167.493 239.576 169.733 237.112 172.805 237.112C175.877 237.112 178.117 239.576 178.117 243C178.117 246.392 175.877 248.824 172.805 248.824C169.733 248.824 167.493 246.392 167.493 243ZM197.396 251L197.332 247.8V235H194.772V243.768C194.772 246.808 192.564 248.76 190.036 248.76C187.636 248.76 186.068 246.968 186.068 244.536V235H183.508V244.792C183.508 248.6 186.1 251.384 189.652 251.384C192.084 251.384 194.132 250.136 194.836 248.28L195.156 251H197.396ZM215.145 251.384C217.545 251.384 219.529 250.296 220.745 248.408L221.065 251H223.241L223.177 247.8V229.24H220.617V237.464C219.337 235.672 217.385 234.616 215.017 234.616C210.633 234.616 207.305 238.232 207.305 242.936C207.305 247.672 210.729 251.384 215.145 251.384ZM209.993 243C209.993 239.576 212.201 237.112 215.273 237.112C218.409 237.112 220.681 239.576 220.681 243C220.681 246.424 218.505 248.824 215.401 248.824C212.265 248.824 209.993 246.36 209.993 243ZM234.368 251.384C239.008 251.384 242.368 247.864 242.368 243C242.368 238.136 239.008 234.616 234.368 234.616C229.728 234.616 226.368 238.136 226.368 243C226.368 247.864 229.728 251.384 234.368 251.384ZM229.056 243C229.056 239.576 231.296 237.112 234.368 237.112C237.44 237.112 239.68 239.576 239.68 243C239.68 246.392 237.44 248.824 234.368 248.824C231.296 248.824 229.056 246.392 229.056 243ZM256.782 241.464V251H259.342V241.272C259.342 237.4 256.75 234.616 253.134 234.616C250.574 234.616 248.686 235.96 247.854 237.944L247.502 235H245.326V251H247.886V242.424C247.886 239.384 250.094 237.176 252.75 237.176C255.15 237.176 256.782 238.968 256.782 241.464ZM262.472 236.92C264.52 236.92 265.992 235.096 265.992 232.888C265.992 231.096 264.968 229.944 263.688 229.944C262.568 229.944 261.768 230.808 261.768 232.056C261.768 233.336 262.76 234.168 264.2 234.04C264.2 234.936 263.432 235.512 262.408 235.512C262.216 235.512 262.024 235.48 261.896 235.448L261.832 236.856C261.992 236.888 262.248 236.92 262.472 236.92ZM267.412 237.496H270.036V247.288C270.036 249.752 271.796 251.384 274.388 251.384C274.996 251.384 275.668 251.288 276.18 251.128L276.116 248.568C275.732 248.696 275.22 248.76 274.772 248.76C273.46 248.76 272.596 247.96 272.596 246.776V237.496H276.116V235H272.596V230.904H270.164V233.016C270.164 234.168 269.428 235 268.436 235H267.412V237.496ZM284.862 235L287.422 251H290.622L294.142 238.456L297.534 251H300.606L303.422 235H300.862L298.942 247.672L295.614 235H292.798L289.278 247.672L287.55 235H284.862ZM315.516 243.32V244.344C315.516 246.904 313.372 248.888 310.716 248.888C308.924 248.888 307.9 248.024 307.9 246.776C307.9 245.592 308.668 244.632 310.204 244.344L314.428 243.576C314.876 243.48 315.292 243.416 315.516 243.32ZM305.084 246.776C305.084 249.464 307.132 251.384 310.204 251.384C312.764 251.384 314.684 250.232 315.612 248.376L316.028 251H318.14L318.076 247.8V240.376C318.076 236.888 315.388 234.616 311.932 234.616C308.508 234.616 305.916 237.016 305.596 240.312L308.411 240.76C308.476 238.52 309.884 236.92 311.996 236.92C314.044 236.92 315.516 238.36 315.516 240.376V240.504C315.516 240.952 315.1 241.304 314.492 241.4L309.564 242.296C306.62 242.84 305.084 244.472 305.084 246.776ZM333.126 241.464V251H335.686V241.272C335.686 237.4 333.094 234.616 329.478 234.616C326.918 234.616 325.03 235.96 324.198 237.944L323.846 235H321.67V251H324.23V242.424C324.23 239.384 326.438 237.176 329.094 237.176C331.494 237.176 333.126 238.968 333.126 241.464ZM337.35 237.496H339.974V247.288C339.974 249.752 341.734 251.384 344.326 251.384C344.934 251.384 345.606 251.288 346.118 251.128L346.054 248.568C345.67 248.696 345.158 248.76 344.71 248.76C343.398 248.76 342.534 247.96 342.534 246.776V237.496H346.054V235H342.534V230.904H340.102V233.016C340.102 234.168 339.366 235 338.374 235H337.35V237.496ZM131.381 280.496H134.005V290.288C134.005 292.752 135.765 294.384 138.357 294.384C138.965 294.384 139.637 294.288 140.149 294.128L140.085 291.568C139.701 291.696 139.189 291.76 138.741 291.76C137.429 291.76 136.565 290.96 136.565 289.776V280.496H140.085V278H136.565V273.904H134.133V276.016C134.133 277.168 133.397 278 132.405 278H131.381V280.496ZM149.805 294.384C154.445 294.384 157.805 290.864 157.805 286C157.805 281.136 154.445 277.616 149.805 277.616C145.165 277.616 141.805 281.136 141.805 286C141.805 290.864 145.165 294.384 149.805 294.384ZM144.493 286C144.493 282.576 146.733 280.112 149.805 280.112C152.877 280.112 155.117 282.576 155.117 286C155.117 289.392 152.877 291.824 149.805 291.824C146.733 291.824 144.493 289.392 144.493 286ZM168.051 272.24V294H170.611V272.24H168.051ZM181.805 294.384C186.445 294.384 189.805 290.864 189.805 286C189.805 281.136 186.445 277.616 181.805 277.616C177.165 277.616 173.805 281.136 173.805 286C173.805 290.864 177.165 294.384 181.805 294.384ZM176.493 286C176.493 282.576 178.733 280.112 181.805 280.112C184.877 280.112 187.117 282.576 187.117 286C187.117 289.392 184.877 291.824 181.805 291.824C178.733 291.824 176.493 289.392 176.493 286ZM199.868 294.384C204.508 294.384 207.868 290.864 207.868 286C207.868 281.136 204.508 277.616 199.868 277.616C195.228 277.616 191.868 281.136 191.868 286C191.868 290.864 195.228 294.384 199.868 294.384ZM194.556 286C194.556 282.576 196.796 280.112 199.868 280.112C202.94 280.112 205.18 282.576 205.18 286C205.18 289.392 202.94 291.824 199.868 291.824C196.796 291.824 194.556 289.392 194.556 286ZM211.082 272.24V294H213.642V289.712L216.458 286.672L221.834 294H225.034L218.186 284.784L224.394 278H220.938L213.642 286.224V272.24H211.082ZM234.301 272.24V294H236.861V272.24H234.301ZM241.271 278V294H243.831V278H241.271ZM240.567 273.904C240.567 275.088 241.399 275.952 242.551 275.952C243.703 275.952 244.535 275.088 244.535 273.904C244.535 272.72 243.703 271.856 242.551 271.856C241.399 271.856 240.567 272.72 240.567 273.904ZM248.239 272.24V294H250.799V289.712L253.615 286.672L258.991 294H262.191L255.343 284.784L261.551 278H258.095L250.799 286.224V272.24H248.239ZM270.457 294.384C274.041 294.384 277.049 292.336 277.753 289.52L274.873 288.624C274.489 290.48 272.569 291.824 270.457 291.824C267.833 291.824 265.849 289.84 265.465 286.992H277.849C277.881 286.736 277.881 286.576 277.881 286.448C277.881 281.328 274.937 277.616 270.329 277.616C265.849 277.616 262.649 281.168 262.649 286.064C262.649 290.896 265.849 294.384 270.457 294.384ZM265.529 284.496C266.009 281.872 267.833 280.112 270.201 280.112C272.505 280.112 274.617 281.68 275.129 284.496H265.529ZM286.002 278L292.274 293.488L291.378 295.792C290.802 297.264 289.714 297.968 288.306 298.096L289.01 300.784C291.186 300.528 292.946 298.864 293.938 296.304L300.978 278H298.034L293.682 290.288L289.01 278H286.002ZM309.805 294.384C314.445 294.384 317.805 290.864 317.805 286C317.805 281.136 314.445 277.616 309.805 277.616C305.165 277.616 301.805 281.136 301.805 286C301.805 290.864 305.165 294.384 309.805 294.384ZM304.493 286C304.493 282.576 306.733 280.112 309.805 280.112C312.877 280.112 315.117 282.576 315.117 286C315.117 289.392 312.877 291.824 309.805 291.824C306.733 291.824 304.493 289.392 304.493 286ZM334.396 294L334.332 290.8V278H331.772V286.768C331.772 289.808 329.564 291.76 327.036 291.76C324.636 291.76 323.068 289.968 323.068 287.536V278H320.508V287.792C320.508 291.6 323.1 294.384 326.652 294.384C329.084 294.384 331.132 293.136 331.836 291.28L332.156 294H334.396ZM338.17 294H340.73V284.784C340.73 282.288 342.33 280.496 344.57 280.496C345.082 280.496 345.85 280.624 346.49 281.008L346.618 278C346.074 277.776 345.466 277.616 344.826 277.616C342.97 277.616 341.434 278.8 340.666 280.656L340.346 278H338.17V294ZM96.507 327.464V337H99.067V327.272C99.067 323.4 96.475 320.616 92.859 320.616C90.427 320.616 88.379 321.768 87.611 323.656V315.24H85.051V337H87.611V328.424C87.611 325.384 89.819 323.176 92.475 323.176C94.875 323.176 96.507 324.968 96.507 327.464ZM109.551 337.384C113.135 337.384 116.143 335.336 116.847 332.52L113.967 331.624C113.583 333.48 111.663 334.824 109.551 334.824C106.927 334.824 104.943 332.84 104.559 329.992H116.943C116.975 329.736 116.975 329.576 116.975 329.448C116.975 324.328 114.031 320.616 109.423 320.616C104.943 320.616 101.743 324.168 101.743 329.064C101.743 333.896 104.943 337.384 109.551 337.384ZM104.623 327.496C105.103 324.872 106.927 323.112 109.295 323.112C111.599 323.112 113.711 324.68 114.223 327.496H104.623ZM119.92 337H122.48V327.784C122.48 325.288 124.08 323.496 126.32 323.496C126.832 323.496 127.6 323.624 128.24 324.008L128.368 321C127.824 320.776 127.216 320.616 126.576 320.616C124.72 320.616 123.184 321.8 122.416 323.656L122.096 321H119.92V337ZM137.524 337.384C142.164 337.384 145.524 333.864 145.524 329C145.524 324.136 142.164 320.616 137.524 320.616C132.884 320.616 129.524 324.136 129.524 329C129.524 333.864 132.884 337.384 137.524 337.384ZM132.212 329C132.212 325.576 134.452 323.112 137.524 323.112C140.596 323.112 142.836 325.576 142.836 329C142.836 332.392 140.596 334.824 137.524 334.824C134.452 334.824 132.212 332.392 132.212 329ZM155.395 337.384C158.979 337.384 161.987 335.336 162.691 332.52L159.811 331.624C159.427 333.48 157.507 334.824 155.395 334.824C152.771 334.824 150.786 332.84 150.403 329.992H162.787C162.819 329.736 162.819 329.576 162.819 329.448C162.819 324.328 159.875 320.616 155.267 320.616C150.786 320.616 147.587 324.168 147.587 329.064C147.587 333.896 150.786 337.384 155.395 337.384ZM150.467 327.496C150.947 324.872 152.771 323.112 155.139 323.112C157.443 323.112 159.555 324.68 160.067 327.496H150.467ZM167.428 331.496L164.612 332.264C164.836 335.24 167.716 337.384 171.524 337.384C175.172 337.384 177.668 335.464 177.668 332.648C177.668 327.048 168.132 328.552 168.132 325.096C168.132 323.816 169.476 322.984 171.076 322.984C172.932 322.984 174.404 324.104 174.468 325.672L177.156 324.968C176.804 322.44 174.372 320.616 171.076 320.616C167.908 320.616 165.38 322.152 165.38 324.968C165.38 330.568 174.852 329 174.852 332.648C174.852 333.992 173.508 334.952 171.716 334.952C169.508 334.952 167.556 333.512 167.428 331.496ZM180.166 340.008C182.214 340.008 183.686 338.184 183.686 335.976C183.686 334.184 182.661 333.032 181.382 333.032C180.262 333.032 179.462 333.896 179.462 335.144C179.462 336.424 180.454 337.256 181.894 337.128C181.894 338.024 181.126 338.6 180.102 338.6C179.91 338.6 179.718 338.568 179.59 338.536L179.526 339.944C179.686 339.976 179.942 340.008 180.166 340.008ZM192.064 321L198.336 336.488L197.44 338.792C196.864 340.264 195.776 340.968 194.368 341.096L195.072 343.784C197.248 343.528 199.008 341.864 200 339.304L207.04 321H204.096L199.744 333.288L195.072 321H192.064ZM215.868 337.384C220.508 337.384 223.868 333.864 223.868 329C223.868 324.136 220.508 320.616 215.868 320.616C211.228 320.616 207.868 324.136 207.868 329C207.868 333.864 211.228 337.384 215.868 337.384ZM210.556 329C210.556 325.576 212.796 323.112 215.868 323.112C218.94 323.112 221.18 325.576 221.18 329C221.18 332.392 218.94 334.824 215.868 334.824C212.796 334.824 210.556 332.392 210.556 329ZM240.458 337L240.394 333.8V321H237.834V329.768C237.834 332.808 235.626 334.76 233.098 334.76C230.698 334.76 229.13 332.968 229.13 330.536V321H226.57V330.792C226.57 334.6 229.162 337.384 232.714 337.384C235.146 337.384 237.194 336.136 237.898 334.28L238.218 337H240.458ZM250.112 321L252.672 337H255.872L259.392 324.456L262.784 337H265.856L268.672 321H266.112L264.192 333.672L260.864 321H258.048L254.528 333.672L252.8 321H250.112ZM280.766 329.32V330.344C280.766 332.904 278.622 334.888 275.966 334.888C274.174 334.888 273.15 334.024 273.15 332.776C273.15 331.592 273.918 330.632 275.454 330.344L279.678 329.576C280.126 329.48 280.542 329.416 280.766 329.32ZM270.334 332.776C270.334 335.464 272.382 337.384 275.454 337.384C278.014 337.384 279.934 336.232 280.862 334.376L281.278 337H283.39L283.326 333.8V326.376C283.326 322.888 280.638 320.616 277.182 320.616C273.758 320.616 271.166 323.016 270.846 326.312L273.661 326.76C273.726 324.52 275.134 322.92 277.246 322.92C279.294 322.92 280.766 324.36 280.766 326.376V326.504C280.766 326.952 280.35 327.304 279.742 327.4L274.814 328.296C271.87 328.84 270.334 330.472 270.334 332.776ZM298.376 327.464V337H300.936V327.272C300.936 323.4 298.344 320.616 294.728 320.616C292.168 320.616 290.28 321.96 289.448 323.944L289.096 321H286.92V337H289.48V328.424C289.48 325.384 291.688 323.176 294.344 323.176C296.744 323.176 298.376 324.968 298.376 327.464ZM302.6 323.496H305.224V333.288C305.224 335.752 306.984 337.384 309.576 337.384C310.184 337.384 310.856 337.288 311.368 337.128L311.304 334.568C310.92 334.696 310.408 334.76 309.96 334.76C308.648 334.76 307.784 333.96 307.784 332.776V323.496H311.304V321H307.784V316.904H305.352V319.016C305.352 320.168 304.616 321 303.624 321H302.6V323.496ZM319.537 323.496H322.161V333.288C322.161 335.752 323.921 337.384 326.513 337.384C327.121 337.384 327.793 337.288 328.305 337.128L328.241 334.568C327.857 334.696 327.345 334.76 326.897 334.76C325.585 334.76 324.721 333.96 324.721 332.776V323.496H328.241V321H324.721V316.904H322.289V319.016C322.289 320.168 321.553 321 320.561 321H319.537V323.496ZM337.962 337.384C342.602 337.384 345.962 333.864 345.962 329C345.962 324.136 342.602 320.616 337.962 320.616C333.322 320.616 329.962 324.136 329.962 329C329.962 333.864 333.322 337.384 337.962 337.384ZM332.65 329C332.65 325.576 334.89 323.112 337.962 323.112C341.034 323.112 343.274 325.576 343.274 329C343.274 332.392 341.034 334.824 337.962 334.824C334.89 334.824 332.65 332.392 332.65 329ZM70.5215 374.496L67.7055 375.264C67.9295 378.24 70.8095 380.384 74.6175 380.384C78.2655 380.384 80.7615 378.464 80.7615 375.648C80.7615 370.048 71.2255 371.552 71.2255 368.096C71.2255 366.816 72.5695 365.984 74.1695 365.984C76.0255 365.984 77.4975 367.104 77.5615 368.672L80.2495 367.968C79.8975 365.44 77.4655 363.616 74.1695 363.616C71.0015 363.616 68.4735 365.152 68.4735 367.968C68.4735 373.568 77.9455 372 77.9455 375.648C77.9455 376.992 76.6015 377.952 74.8095 377.952C72.6015 377.952 70.6495 376.512 70.5215 374.496ZM90.3633 380.384C93.9473 380.384 96.9553 378.336 97.6593 375.52L94.7793 374.624C94.3953 376.48 92.4753 377.824 90.3633 377.824C87.7393 377.824 85.7552 375.84 85.3713 372.992H97.7553C97.7873 372.736 97.7873 372.576 97.7873 372.448C97.7873 367.328 94.8433 363.616 90.2353 363.616C85.7552 363.616 82.5553 367.168 82.5553 372.064C82.5553 376.896 85.7552 380.384 90.3633 380.384ZM85.4353 370.496C85.9153 367.872 87.7393 366.112 90.1073 366.112C92.4113 366.112 94.5233 367.68 95.0353 370.496H85.4353ZM107.645 380.384C111.229 380.384 114.237 378.336 114.941 375.52L112.061 374.624C111.677 376.48 109.757 377.824 107.645 377.824C105.021 377.824 103.036 375.84 102.653 372.992H115.037C115.069 372.736 115.069 372.576 115.069 372.448C115.069 367.328 112.125 363.616 107.517 363.616C103.036 363.616 99.8365 367.168 99.8365 372.064C99.8365 376.896 103.036 380.384 107.645 380.384ZM102.717 370.496C103.197 367.872 105.021 366.112 107.389 366.112C109.693 366.112 111.805 367.68 112.317 370.496H102.717ZM125.301 358.24V380H127.861V358.24H125.301ZM132.271 364V380H134.831V364H132.271ZM131.567 359.904C131.567 361.088 132.399 361.952 133.551 361.952C134.703 361.952 135.535 361.088 135.535 359.904C135.535 358.72 134.703 357.856 133.551 357.856C132.399 357.856 131.567 358.72 131.567 359.904ZM139.239 358.24V380H141.799V375.712L144.615 372.672L149.991 380H153.191L146.343 370.784L152.551 364H149.095L141.799 372.224V358.24H139.239ZM161.457 380.384C165.041 380.384 168.049 378.336 168.753 375.52L165.873 374.624C165.489 376.48 163.569 377.824 161.457 377.824C158.833 377.824 156.849 375.84 156.465 372.992H168.849C168.881 372.736 168.881 372.576 168.881 372.448C168.881 367.328 165.937 363.616 161.329 363.616C156.849 363.616 153.649 367.168 153.649 372.064C153.649 376.896 156.849 380.384 161.457 380.384ZM156.529 370.496C157.009 367.872 158.833 366.112 161.201 366.112C163.505 366.112 165.617 367.68 166.129 370.496H156.529ZM177.002 364L183.274 379.488L182.378 381.792C181.802 383.264 180.714 383.968 179.306 384.096L180.01 386.784C182.186 386.528 183.946 384.864 184.938 382.304L191.978 364H189.034L184.682 376.288L180.01 364H177.002ZM200.805 380.384C205.445 380.384 208.805 376.864 208.805 372C208.805 367.136 205.445 363.616 200.805 363.616C196.165 363.616 192.805 367.136 192.805 372C192.805 376.864 196.165 380.384 200.805 380.384ZM195.493 372C195.493 368.576 197.733 366.112 200.805 366.112C203.877 366.112 206.117 368.576 206.117 372C206.117 375.392 203.877 377.824 200.805 377.824C197.733 377.824 195.493 375.392 195.493 372ZM225.396 380L225.332 376.8V364H222.772V372.768C222.772 375.808 220.564 377.76 218.036 377.76C215.636 377.76 214.068 375.968 214.068 373.536V364H211.508V373.792C211.508 377.6 214.1 380.384 217.652 380.384C220.084 380.384 222.132 379.136 222.836 377.28L223.156 380H225.396ZM229.17 380H231.73V370.784C231.73 368.288 233.33 366.496 235.57 366.496C236.082 366.496 236.85 366.624 237.49 367.008L237.618 364C237.074 363.776 236.466 363.616 235.826 363.616C233.97 363.616 232.434 364.8 231.666 366.656L231.346 364H229.17V380ZM258.663 370.464V380H261.223V370.272C261.223 366.4 258.631 363.616 255.015 363.616C252.583 363.616 250.535 364.768 249.767 366.656V358.24H247.207V380H249.767V371.424C249.767 368.384 251.975 366.176 254.631 366.176C257.031 366.176 258.663 367.968 258.663 370.464ZM271.707 380.384C275.291 380.384 278.299 378.336 279.003 375.52L276.123 374.624C275.739 376.48 273.819 377.824 271.707 377.824C269.083 377.824 267.099 375.84 266.715 372.992H279.099C279.131 372.736 279.131 372.576 279.131 372.448C279.131 367.328 276.187 363.616 271.579 363.616C267.099 363.616 263.899 367.168 263.899 372.064C263.899 376.896 267.099 380.384 271.707 380.384ZM266.779 370.496C267.259 367.872 269.083 366.112 271.451 366.112C273.755 366.112 275.867 367.68 276.379 370.496H266.779ZM282.076 380H284.636V370.784C284.636 368.288 286.236 366.496 288.476 366.496C288.988 366.496 289.756 366.624 290.396 367.008L290.524 364C289.98 363.776 289.372 363.616 288.732 363.616C286.876 363.616 285.34 364.8 284.572 366.656L284.252 364H282.076V380ZM299.68 380.384C304.32 380.384 307.68 376.864 307.68 372C307.68 367.136 304.32 363.616 299.68 363.616C295.04 363.616 291.68 367.136 291.68 372C291.68 376.864 295.04 380.384 299.68 380.384ZM294.368 372C294.368 368.576 296.608 366.112 299.68 366.112C302.752 366.112 304.992 368.576 304.992 372C304.992 375.392 302.752 377.824 299.68 377.824C296.608 377.824 294.368 375.392 294.368 372ZM317.551 380.384C321.135 380.384 324.143 378.336 324.847 375.52L321.967 374.624C321.583 376.48 319.663 377.824 317.551 377.824C314.927 377.824 312.943 375.84 312.559 372.992H324.943C324.975 372.736 324.975 372.576 324.975 372.448C324.975 367.328 322.031 363.616 317.423 363.616C312.943 363.616 309.743 367.168 309.743 372.064C309.743 376.896 312.943 380.384 317.551 380.384ZM312.623 370.496C313.103 367.872 314.927 366.112 317.295 366.112C319.599 366.112 321.711 367.68 322.223 370.496H312.623ZM329.584 374.496L326.768 375.264C326.992 378.24 329.872 380.384 333.68 380.384C337.328 380.384 339.824 378.464 339.824 375.648C339.824 370.048 330.288 371.552 330.288 368.096C330.288 366.816 331.632 365.984 333.232 365.984C335.088 365.984 336.56 367.104 336.624 368.672L339.312 367.968C338.96 365.44 336.528 363.616 333.232 363.616C330.064 363.616 327.536 365.152 327.536 367.968C327.536 373.568 337.008 372 337.008 375.648C337.008 376.992 335.664 377.952 333.872 377.952C331.664 377.952 329.712 376.512 329.584 374.496ZM343.666 380.256C344.85 380.256 345.714 379.36 345.714 378.144C345.714 376.928 344.85 376.032 343.666 376.032C342.482 376.032 341.618 376.928 341.618 378.144C341.618 379.36 342.482 380.256 343.666 380.256Z" fill="black"/>
<path d="M203.81 463.872V465.744H212.162V463.872H203.81ZM218.119 471H220.423L222.007 466.776H228.607L230.215 471H232.519L226.375 455.4H224.263L218.119 471ZM222.727 464.856L225.271 458.04L227.863 464.856H222.727ZM244.008 471L243.96 468.6V459H242.04V465.576C242.04 467.856 240.384 469.32 238.488 469.32C236.688 469.32 235.512 467.976 235.512 466.152V459H233.592V466.344C233.592 469.2 235.536 471.288 238.2 471.288C240.024 471.288 241.56 470.352 242.088 468.96L242.328 471H244.008ZM248.086 466.872L245.974 467.448C246.142 469.68 248.302 471.288 251.158 471.288C253.894 471.288 255.766 469.848 255.766 467.736C255.766 463.536 248.614 464.664 248.614 462.072C248.614 461.112 249.622 460.488 250.822 460.488C252.214 460.488 253.318 461.328 253.366 462.504L255.382 461.976C255.118 460.08 253.294 458.712 250.822 458.712C248.446 458.712 246.55 459.864 246.55 461.976C246.55 466.176 253.654 465 253.654 467.736C253.654 468.744 252.646 469.464 251.302 469.464C249.646 469.464 248.182 468.384 248.086 466.872ZM256.536 460.872H258.504V468.216C258.504 470.064 259.824 471.288 261.768 471.288C262.224 471.288 262.728 471.216 263.112 471.096L263.064 469.176C262.776 469.272 262.392 469.32 262.056 469.32C261.072 469.32 260.424 468.72 260.424 467.832V460.872H263.064V459H260.424V455.928H258.6V457.512C258.6 458.376 258.048 459 257.304 459H256.536V460.872ZM265.453 459V471H267.373V459H265.453ZM264.925 455.928C264.925 456.816 265.549 457.464 266.413 457.464C267.277 457.464 267.901 456.816 267.901 455.928C267.901 455.04 267.277 454.392 266.413 454.392C265.549 454.392 264.925 455.04 264.925 455.928ZM279.079 463.848V471H280.999V463.704C280.999 460.8 279.055 458.712 276.343 458.712C274.423 458.712 273.007 459.72 272.383 461.208L272.119 459H270.487V471H272.407V464.568C272.407 462.288 274.063 460.632 276.055 460.632C277.855 460.632 279.079 461.976 279.079 463.848ZM289.148 471H291.164V467.184L294.044 463.824L299.372 471H301.916L295.412 462.216L301.244 455.4H298.556L291.164 464.328V455.4H289.148V471ZM303.749 454.68V471H305.669V454.68H303.749ZM313.921 471.288C316.609 471.288 318.865 469.752 319.393 467.64L317.233 466.968C316.945 468.36 315.505 469.368 313.921 469.368C311.953 469.368 310.465 467.88 310.177 465.744H319.465C319.489 465.552 319.489 465.432 319.489 465.336C319.489 461.496 317.281 458.712 313.825 458.712C310.465 458.712 308.065 461.376 308.065 465.048C308.065 468.672 310.465 471.288 313.921 471.288ZM310.225 463.872C310.585 461.904 311.953 460.584 313.729 460.584C315.457 460.584 317.041 461.76 317.425 463.872H310.225ZM327.026 471.288C330.506 471.288 333.026 468.648 333.026 465C333.026 461.352 330.506 458.712 327.026 458.712C323.546 458.712 321.026 461.352 321.026 465C321.026 468.648 323.546 471.288 327.026 471.288ZM323.042 465C323.042 462.432 324.722 460.584 327.026 460.584C329.33 460.584 331.01 462.432 331.01 465C331.01 467.544 329.33 469.368 327.026 469.368C324.722 469.368 323.042 467.544 323.042 465ZM343.837 463.848V471H345.757V463.704C345.757 460.8 343.813 458.712 341.101 458.712C339.181 458.712 337.765 459.72 337.141 461.208L336.877 459H335.245V471H337.165V464.568C337.165 462.288 338.821 460.632 340.813 460.632C342.613 460.632 343.837 461.976 343.837 463.848Z" fill="black"/>
<path d="M386.375 40.5H367.25C366.653 40.5 366.081 40.2629 365.659 39.841C365.237 39.419 365 38.8467 365 38.25V20.25C365 19.6533 365.237 19.081 365.659 18.659C366.081 18.2371 366.653 18 367.25 18H384.125C384.722 18 385.294 18.2371 385.716 18.659C386.138 19.081 386.375 19.6533 386.375 20.25V45C386.375 47.9837 385.19 50.8452 383.08 52.955C380.97 55.0647 378.109 56.25 375.125 56.25" fill="black"/>
<path d="M386.375 40.5H367.25C366.653 40.5 366.081 40.2629 365.659 39.841C365.237 39.419 365 38.8467 365 38.25V20.25C365 19.6533 365.237 19.081 365.659 18.659C366.081 18.2371 366.653 18 367.25 18H384.125C384.722 18 385.294 18.2371 385.716 18.659C386.138 19.081 386.375 19.6533 386.375 20.25V45C386.375 47.9837 385.19 50.8452 383.08 52.955C380.97 55.0647 378.109 56.25 375.125 56.25" stroke="black" stroke-width="2" stroke-linecap="round" stroke-linejoin="round"/>
<path d="M419 40.5H399.875C399.278 40.5 398.706 40.2629 398.284 39.841C397.862 39.419 397.625 38.8467 397.625 38.25V20.25C397.625 19.6533 397.862 19.081 398.284 18.659C398.706 18.2371 399.278 18 399.875 18H416.75C417.347 18 417.919 18.2371 418.341 18.659C418.763 19.081 419 19.6533 419 20.25V45C419 47.9837 417.815 50.8452 415.705 52.955C413.595 55.0647 410.734 56.25 407.75 56.25" fill="black"/>
<path d="M419 40.5H399.875C399.278 40.5 398.706 40.2629 398.284 39.841C397.862 39.419 397.625 38.8467 397.625 38.25V20.25C397.625 19.6533 397.862 19.081 398.284 18.659C398.706 18.2371 399.278 18 399.875 18H416.75C417.347 18 417.919 18.2371 418.341 18.659C418.763 19.081 419 19.6533 419 20.25V45C419 47.9837 417.815 50.8452 415.705 52.955C413.595 55.0647 410.734 56.25 407.75 56.25" stroke="black" stroke-width="2" stroke-linecap="round" stroke-linejoin="round"/>
</g>
<defs>
<filter id="filter0_d_1772_315" x="0" y="17" width="424" height="526" filterUnits="userSpaceOnUse" color-interpolation-filters="sRGB">
<feFlood flood-opacity="0" result="BackgroundImageFix"/>
<feColorMatrix in="SourceAlpha" type="matrix" values="0 0 0 0 0 0 0 0 0 0 0 0 0 0 0 0 0 0 127 0" result="hardAlpha"/>
<feOffset dy="4"/>
<feGaussianBlur stdDeviation="2"/>
<feComposite in2="hardAlpha" operator="out"/>
<feColorMatrix type="matrix" values="0 0 0 0 0 0 0 0 0 0 0 0 0 0 0 0 0 0 0.25 0"/>
<feBlend mode="normal" in2="BackgroundImageFix" result="effect1_dropShadow_1772_315"/>
<feBlend mode="normal" in="SourceGraphic" in2="effect1_dropShadow_1772_315" result="shape"/>
</filter>
</defs>
</svg>
