<svg width="40" height="40" viewBox="0 0 40 40" fill="none" xmlns="http://www.w3.org/2000/svg">
<path d="M5.40681 9.95087C6.45247 9.23287 8.02876 9.37057 8.96763 10.1323L7.89082 8.59465C7.02425 7.38051 7.33461 6.06691 8.57161 5.2145C9.80861 4.36536 13.3138 6.64831 13.3138 6.64831C12.4395 5.42214 12.603 3.86812 13.8511 3.00806C15.0992 2.15127 16.8212 2.44743 17.6956 3.67578L29.2869 19.7624L27.8096 33.8327L15.4808 29.4154L4.72713 13.7518C3.84499 12.5179 4.14979 10.8164 5.40681 9.95087Z" fill="#EF9645"/>
<path d="M2.99924 18.9C2.99924 18.9 1.73999 17.0968 3.57658 15.8608C5.41094 14.6248 6.66908 16.4269 6.66908 16.4269L12.5103 24.7959C12.7117 24.4659 12.9319 24.1402 13.1778 23.8189L5.07054 12.2053C5.07054 12.2053 3.81241 10.4032 5.64789 9.1672C7.48225 7.9312 8.74038 9.73329 8.74038 9.73329L16.3659 20.6584C16.6496 20.4311 16.9399 20.2027 17.2392 19.9787L8.39887 7.31156C8.39887 7.31156 7.14074 5.50947 8.97621 4.27347C10.8106 3.03747 12.0687 4.83956 12.0687 4.83956L20.909 17.5045C21.2338 17.3089 21.5553 17.1395 21.8779 16.9602L13.615 5.1226C13.615 5.1226 12.3568 3.32051 14.1912 2.08451C16.0255 0.848508 17.2837 2.6506 17.2837 2.6506L26.0205 15.168L27.3488 17.0717C21.8446 20.7808 21.3206 27.7586 24.4654 32.2644C25.0939 33.166 26.0116 32.5485 26.0116 32.5485C22.2372 27.14 23.3897 21.0628 28.895 17.3548L27.272 9.37484C27.272 9.37484 26.6657 7.27222 28.8049 6.67553C30.9452 6.07993 31.5526 8.18255 31.5526 8.18255L33.427 13.6511C34.17 15.8193 34.961 17.9799 36.0077 20.0235C38.9634 25.7937 37.198 32.9649 31.6249 36.721C25.5455 40.8158 17.2347 39.2935 13.0654 33.3222L2.99924 18.9Z" fill="#FFDC5D"/>
<path d="M13.3466 34.9703C8.89696 34.9703 4.4006 30.5531 4.4006 26.1817C4.4006 25.5774 3.95007 25.0889 3.33491 25.0889C2.71975 25.0889 2.17578 25.5774 2.17578 26.1817C2.17578 32.7387 6.67214 37.156 13.3466 37.156C13.9618 37.156 14.459 36.6216 14.459 36.0173C14.459 35.4129 13.9618 34.9703 13.3466 34.9703Z" fill="#563ADA"/>
<path d="M7.78686 37.1105C4.44964 37.1105 2.22482 34.9248 2.22482 31.6463C2.22482 31.042 1.72757 30.5535 1.11241 30.5535C0.497247 30.5535 0 31.042 0 31.6463C0 36.0177 3.33723 39.2962 7.78686 39.2962C8.40202 39.2962 8.89927 38.8077 8.89927 38.2034C8.89927 37.599 8.40202 37.1105 7.78686 37.1105ZM26.6978 2.13965C26.0838 2.13965 25.5854 2.62924 25.5854 3.23249C25.5854 3.83574 26.0838 4.32533 26.6978 4.32533C31.1474 4.32533 35.5971 8.24753 35.5971 13.068C35.5971 13.6713 36.0954 14.1609 36.7095 14.1609C37.3235 14.1609 37.8219 13.6713 37.8219 13.068C37.8219 7.04213 33.3723 2.13965 26.6978 2.13965Z" fill="#563ADA"/>
<path d="M32.2608 0C31.6468 0 31.1484 0.443693 31.1484 1.04694C31.1484 1.65019 31.6468 2.18568 32.2608 2.18568C35.5981 2.18568 37.7762 4.61725 37.7762 7.60398C37.7762 8.20723 38.3201 8.69682 38.9353 8.69682C39.5505 8.69682 40.001 8.20723 40.001 7.60398C40.001 3.41075 36.7105 0 32.2608 0Z" fill="#563ADA"/>
</svg>
